<?xml version="1.0" standalone="no"?>
<!DOCTYPE svg PUBLIC "-//W3C//DTD SVG 1.1//EN" "http://www.w3.org/Graphics/SVG/1.1/DTD/svg11.dtd" >
<svg xmlns="http://www.w3.org/2000/svg">
<metadata></metadata>
<defs>
<font id="libertaditalic" horiz-adv-x="1319" >
<font-face units-per-em="2048" ascent="1638" descent="-410" />
<missing-glyph horiz-adv-x="420" />
<glyph unicode="&#x31;&#x2f;&#x34;" horiz-adv-x="1356" d="M50 61l1151 1291l95 -82l-1152 -1290zM206 1206l3 100q95 13 257 44h23l-95 -599h-127l75 473q-70 -12 -136 -18zM731 116l15 94l234 389l115 -20l-222 -366h128l32 197h112l-32 -197h85l-15 -97h-84l-18 -116h-113l17 116h-254z" />
<glyph unicode="&#x31;&#x2f;&#x32;" horiz-adv-x="1386" d="M50 61l1151 1291l95 -82l-1152 -1290zM206 1206l3 100q95 13 257 44h23l-95 -599h-127l75 473q-70 -12 -136 -18zM783 0l14 91q169 107 239.5 175t70.5 143q0 83 -79 83q-25 0 -56.5 -9t-49.5 -17t-28 -14l-28 90q13 8 35.5 19.5t67.5 24.5t86 13q91 0 136 -48.5 t45 -126.5q0 -94 -64 -166t-194 -154h236l-16 -104h-415z" />
<glyph unicode="&#x33;&#x2f;&#x34;" horiz-adv-x="1426" d="M120 61l1151 1291l95 -82l-1152 -1290zM164 768l43 96q62 -28 128 -28q111 0 111 93q0 35 -21.5 53t-59.5 18h-84l15 94h129q32 19 42 77q5 36 -15 55t-57 19q-55 0 -127 -27l-20 93q74 39 167 39q89 0 135 -41t46 -107q0 -50 -28.5 -87.5t-61.5 -58.5h-2q27 -15 47 -47 t20 -76q0 -92 -68.5 -147t-185.5 -55q-94 0 -153 37zM801 116l15 94l234 389l115 -20l-222 -366h128l32 197h112l-32 -197h85l-15 -97h-84l-18 -116h-113l17 116h-254z" />
<glyph unicode="&#xfb01;" horiz-adv-x="1036" d="M80 -396l205 1287h-149l19 119l152 10q-2 78 10 154q52 306 416 306q75 0 144 -18t107 -37l-49 -122q-99 40 -229 40q-109 0 -164.5 -45t-71.5 -142q-5 -30 -6 -71.5t0 -60.5h512l-126 -791q-25 -154 -17 -233h-148q-9 28 -9 88.5t8 111.5l110 691h-348l-206 -1287h-160z " />
<glyph unicode="&#xfb02;" horiz-adv-x="1082" d="M80 -396l205 1287h-149l19 119l152 10q-2 78 10 154q26 153 130 229.5t276 76.5q84 0 181.5 -17t151.5 -32q0 -95 -13 -186l-162 -1012q-25 -154 -17 -233h-148q-9 28 -9 88.5t8 111.5l167 1043q6 41 10 82q-92 18 -186 18q-109 0 -164.5 -45t-71.5 -142q-5 -30 -6 -71.5 t0 -60.5h242l-21 -133h-239l-206 -1287h-160z" />
<glyph unicode="fii" horiz-adv-x="1596" d="M80 -396l205 1287h-149l19 119l152 10q-2 87 10 174q20 143 108 214.5t238 71.5q90 0 152 -28l-50 -124q-56 15 -119 15q-157 0 -176 -167q-5 -36 -6 -83t0 -69h403q-2 76 10 150q52 306 416 306q75 0 144 -18t107 -37l-49 -122q-99 40 -229 40q-109 0 -164.5 -45 t-71.5 -142q-5 -30 -6 -71.5t0 -60.5h512l-126 -791q-25 -154 -17 -233h-148q-9 28 -9 88.5t8 111.5l110 691h-348l-143 -891h-160l142 891h-399l-206 -1287h-160z" />
<glyph unicode="fll" horiz-adv-x="1637" d="M80 -396l205 1287h-149l19 119l152 10q-2 87 10 174q20 143 108 214.5t238 71.5q90 0 152 -28l-50 -124q-56 15 -119 15q-157 0 -176 -167q-5 -36 -6 -83t0 -69h403q-2 76 10 150q26 153 130 229.5t276 76.5q84 0 181.5 -17t151.5 -32q0 -95 -13 -186l-162 -1012 q-25 -154 -17 -233h-148q-9 28 -9 88.5t8 111.5l167 1043q6 41 10 82q-92 18 -186 18q-109 0 -164.5 -45t-71.5 -142q-5 -30 -6 -71.5t0 -60.5h242l-21 -133h-239l-206 -1287h-160l205 1287h-399l-206 -1287h-160z" />
<glyph horiz-adv-x="2048" />
<glyph horiz-adv-x="2048" />
<glyph unicode="&#xd;" horiz-adv-x="2048" />
<glyph unicode=" "  horiz-adv-x="420" />
<glyph unicode="&#x09;" horiz-adv-x="420" />
<glyph unicode="&#xa0;" horiz-adv-x="420" />
<glyph unicode="!" horiz-adv-x="504" d="M90 76q0 55 39 91t94 36q41 0 65.5 -26.5t24.5 -68.5q0 -56 -39.5 -92t-94.5 -36q-41 0 -65 26.5t-24 69.5zM178 380l117 950h189l-183 -950h-123z" />
<glyph unicode="&#x22;" horiz-adv-x="722" d="M220 962l54 499h174l-104 -499h-124zM514 962l54 499h174l-104 -499h-124z" />
<glyph unicode="#" horiz-adv-x="1217" d="M0 362l35 129h255l99 342h-250l36 131h250l104 366h149l-105 -366h293l106 366h146l-105 -366h244l-37 -131h-243l-99 -342h244l-36 -129h-245l-102 -362h-149l103 362h-292l-102 -362h-147l102 362h-254zM438 491h292l100 342h-293z" />
<glyph unicode="$" horiz-adv-x="847" d="M50 150l58 112q119 -64 262 -64q243 0 243 187q0 66 -52.5 122.5t-166.5 115.5q-111 58 -164.5 127t-53.5 159q0 132 87.5 224.5t232.5 119.5l30 233h150l-42 -224q65 -4 125 -22t88 -35l-49 -117q-105 44 -223 44q-122 0 -183.5 -54t-61.5 -144q0 -62 43 -108t147 -100 q127 -67 187 -140t60 -166q0 -149 -85.5 -238.5t-248.5 -109.5l-29 -228h-150l42 224q-80 6 -145 30t-101 52z" />
<glyph unicode="%" horiz-adv-x="1486" d="M140 61l1151 1291l95 -82l-1152 -1290zM142 993q0 153 97 255t243 102q108 0 171.5 -76.5t63.5 -185.5q0 -154 -97 -255.5t-243 -101.5q-108 0 -171.5 76.5t-63.5 185.5zM277 1005q0 -70 32 -116.5t95 -46.5q75 0 126.5 67t51.5 166q0 71 -32 117.5t-95 46.5 q-75 0 -126.5 -67.5t-51.5 -166.5zM806 242q0 153 97 255t243 102q108 0 171.5 -76.5t63.5 -185.5q0 -154 -97 -255.5t-243 -101.5q-108 0 -171.5 76.5t-63.5 185.5zM941 254q0 -70 32 -116.5t95 -46.5q75 0 126.5 67t51.5 166q0 71 -32 117.5t-95 46.5q-75 0 -126.5 -67.5 t-51.5 -166.5z" />
<glyph unicode="&#x26;" horiz-adv-x="1149" d="M50 288q0 133 80 242t230 180q-69 130 -86.5 177t-17.5 99q0 93 53.5 177t145.5 135.5t196 51.5q131 0 209.5 -67.5t78.5 -184.5q0 -71 -40.5 -141t-97.5 -113q111 -28 179.5 -119.5t68.5 -210.5q0 -224 -205 -388l76 -141q53 -98 53 -191q0 -109 -53 -210l-119 20 q26 88 26 148q0 82 -47 170l-66 123q-128 -65 -279 -65q-171 0 -278 85.5t-107 222.5zM214 322q0 -94 66 -150t176 -56q103 0 197 43l-237 446q-94 -45 -148 -120.5t-54 -162.5zM415 1023q0 -54 14.5 -99.5t58.5 -127.5l293 -552q114 93 114 236q0 109 -52 176.5t-165 103.5 l-47 87q62 44 101 110.5t39 127.5q0 59 -38 94t-103 35q-92 0 -153.5 -54.5t-61.5 -136.5z" />
<glyph unicode="'" horiz-adv-x="428" d="M220 962l54 499h174l-104 -499h-124z" />
<glyph unicode="(" horiz-adv-x="699" d="M190 490q0 135 27 265t70 232.5t101 198t115 164.5t118.5 129t104.5 94.5t79 57.5l64 -97q-46 -39 -88 -80t-108.5 -123t-118 -170.5t-99.5 -217.5t-70 -268q-16 -104 -17 -202t9 -174t31 -148.5t43.5 -123t51 -98.5t49 -75t42.5 -52l-98 -98q-30 24 -65 65.5t-79 114.5 t-79 157.5t-59 203.5t-24 245z" />
<glyph unicode=")" horiz-adv-x="739" d="M-90 -205q46 39 88 80t108.5 123t118 170.5t99.5 217.5t70 268q16 104 17 202t-9 174t-31 148.5t-43.5 123t-51 98.5t-49 75t-42.5 52l98 98q30 -24 65 -65.5t79 -114.5t79 -157.5t59 -203.5t24 -245q0 -135 -27 -265t-70 -232.5t-101 -198t-115 -164.5t-118.5 -129 t-104.5 -94.5t-79 -57.5z" />
<glyph unicode="*" horiz-adv-x="775" d="M170 1162l60 140l210 -95l22 259h146l-62 -259q42 16 124 49t116 46l19 -140l-254 -56h4l140 -186l-120 -98l-109 212l-174 -212l-91 97l199 186h4z" />
<glyph unicode="+" horiz-adv-x="1270" d="M195 598l21 133h370l60 379h148l-60 -379h371l-21 -133h-371l-60 -377h-148l60 377h-370z" />
<glyph unicode="," horiz-adv-x="443" d="M-40 -235q124 89 144 207q18 110 -45 197l164 42q17 -19 33.5 -67t16.5 -108q0 -197 -234 -344z" />
<glyph unicode="-" horiz-adv-x="993" d="M210 466l21 133h542l-21 -133h-542z" />
<glyph unicode="." horiz-adv-x="463" d="M70 76q0 55 39 91t94 36q41 0 65.5 -26.5t24.5 -68.5q0 -56 -39.5 -92t-94.5 -36q-41 0 -65 26.5t-24 69.5z" />
<glyph unicode="/" horiz-adv-x="816" d="M-175 -250l1065 1835h156l-1065 -1835h-156z" />
<glyph unicode="0" horiz-adv-x="1219" d="M130 502q0 139 27 266.5t80 233t126 183.5t169 121.5t205 43.5q191 0 301.5 -145.5t110.5 -376.5q0 -139 -27 -266.5t-80 -233t-126 -183.5t-169 -121.5t-205 -43.5q-191 0 -301.5 145.5t-110.5 376.5zM311 528q0 -193 67.5 -298.5t194.5 -105.5q107 0 198 91.5t144 248 t53 338.5q0 193 -67.5 298.5t-194.5 105.5q-107 0 -198 -91.5t-144 -248t-53 -338.5z" />
<glyph unicode="1" horiz-adv-x="643" d="M125 1167l22 138q165 12 399 45h37l-214 -1350h-174l188 1191q-116 -17 -258 -24z" />
<glyph unicode="2" horiz-adv-x="965" d="M10 0l18 115l426 433q141 143 201.5 248t60.5 206q0 95 -53.5 145.5t-160.5 50.5q-120 0 -249 -44l-30 130q150 66 319 66q163 0 259 -86t96 -239q0 -136 -68.5 -258t-207.5 -261l-363 -363h563l-22 -143h-789z" />
<glyph unicode="3" horiz-adv-x="945" d="M-10 50l64 132q97 -50 260 -50q60 0 115 16.5t101.5 48t74 84t27.5 119.5q0 105 -66.5 156.5t-171.5 51.5h-108l22 143h190q87 36 140.5 111t53.5 169q0 167 -213 167q-114 0 -257 -45l-32 130q53 23 144 45t184 22q174 0 265.5 -79.5t91.5 -225.5q0 -218 -244 -357 q77 -31 130 -103t53 -171q0 -194 -146 -314t-384 -120q-187 0 -294 70z" />
<glyph unicode="4" horiz-adv-x="1050" d="M60 308l20 136l480 906l162 -20l-469 -879h374l74 473h162l-72 -473h189l-21 -143h-190l-49 -308h-165l49 308h-544z" />
<glyph unicode="5" horiz-adv-x="970" d="M56 51l63 133q17 -9 44.5 -19t83 -21.5t110.5 -11.5q143 0 242 86t99 229q0 114 -69.5 180t-183.5 66q-109 0 -255 -33l125 670h641l-22 -143h-482l-69 -363q45 12 105 12q175 0 283.5 -99.5t108.5 -259.5q0 -225 -150 -361t-394 -136q-91 0 -169.5 23t-110.5 48z" />
<glyph unicode="6" horiz-adv-x="1104" d="M130 436q0 141 28.5 274t87 249.5t141 203.5t197.5 137t249 50q70 0 128.5 -13.5t82.5 -26.5l-51 -139q-78 26 -187 26q-93 0 -176.5 -43.5t-144 -116.5t-101.5 -164t-58 -189q38 39 124 77.5t196 38.5q156 0 250.5 -89t94.5 -246q0 -210 -136 -347.5t-359 -137.5 q-174 0 -270 121.5t-96 334.5zM312 544q-13 -115 -1 -208.5t68 -152.5t149 -59q123 0 202.5 83.5t79.5 231.5q0 113 -58 164.5t-153 51.5q-87 0 -165.5 -35t-121.5 -76z" />
<glyph unicode="7" horiz-adv-x="841" d="M80 0l620 1187h-564l19 143h746l-21 -130l-623 -1200h-177z" />
<glyph unicode="8" horiz-adv-x="1046" d="M80 267q0 130 79 224.5t240 178.5q-180 102 -180 279q0 109 63.5 202.5t165.5 146t215 52.5q154 0 243.5 -79t89.5 -214q0 -58 -17 -108.5t-44 -88t-67 -72t-78 -57.5t-86 -47q101 -53 158.5 -132.5t57.5 -178.5q0 -108 -66 -199t-175 -142.5t-233 -51.5 q-163 0 -264.5 75.5t-101.5 211.5zM248 294q0 -85 64 -130.5t156 -45.5q69 0 133 26.5t107.5 81t43.5 124.5q0 79 -58 144t-161 110q-90 -42 -149.5 -83t-87.5 -81t-38 -72.5t-10 -73.5zM387 976q0 -137 176 -223l3 -2q60 30 101 55t81 59.5t60 75.5t20 88q0 82 -52 132.5 t-135 50.5q-103 0 -178.5 -68.5t-75.5 -167.5z" />
<glyph unicode="9" horiz-adv-x="1104" d="M99 32l54 136q86 -36 206 -36q97 0 180 45t139.5 120t93 164t50.5 185q-38 -39 -125.5 -77.5t-197.5 -38.5q-156 0 -250.5 89t-94.5 246q0 208 138.5 346.5t356.5 138.5q185 0 275.5 -119t90.5 -337q0 -151 -26 -286t-80.5 -250.5t-133.5 -199t-191 -131t-246 -47.5 q-138 0 -239 52zM335 891q0 -113 58 -164.5t153 -51.5q86 0 162 34.5t120 76.5q14 82 7.5 158t-28.5 134t-71 93t-119 35q-123 0 -202.5 -83.5t-79.5 -231.5z" />
<glyph unicode=":" horiz-adv-x="477" d="M70 76q0 55 39 91t94 36q41 0 65.5 -26.5t24.5 -68.5q0 -56 -39.5 -92t-94.5 -36q-41 0 -65 26.5t-24 69.5zM204 917q0 55 39 91t94 36q41 0 65.5 -26.5t24.5 -68.5q0 -56 -39.5 -92t-94.5 -36q-41 0 -65 26.5t-24 69.5z" />
<glyph unicode=";" horiz-adv-x="407" d="M-40 -235q124 89 144 207q18 110 -45 197l164 42q17 -19 33.5 -67t16.5 -108q0 -197 -234 -344zM134 917q0 55 39 91t94 36q41 0 65.5 -26.5t24.5 -68.5q0 -56 -39.5 -92t-94.5 -36q-41 0 -65 26.5t-24 69.5z" />
<glyph unicode="&#x3c;" horiz-adv-x="1018" d="M145 665l681 463l72 -104l-532 -359l418 -359l-104 -104z" />
<glyph unicode="=" horiz-adv-x="1261" d="M200 425l21 133h845l-21 -133h-845zM255 773l21 133h845l-21 -133h-845z" />
<glyph unicode="&#x3e;" horiz-adv-x="1016" d="M208 306l532 359l-418 359l104 104l535 -463l-681 -463z" />
<glyph unicode="?" horiz-adv-x="694" d="M110 76q0 55 39 91t94 36q41 0 65.5 -26.5t24.5 -68.5q0 -56 -39.5 -92t-94.5 -36q-41 0 -65 26.5t-24 69.5zM180 369q-22 135 20 237t150 187q50 39 66.5 52.5t51 43t46 44.5t28.5 39.5t22 46.5t5 48q0 70 -52.5 106.5t-150.5 36.5q-106 0 -184 -20l22 138 q108 22 191 22q158 0 253.5 -70.5t95.5 -181.5q0 -64 -15 -113t-60 -99.5t-74.5 -76t-110.5 -88.5q-7 -6 -11 -9.5t-11 -8.5t-12 -9q-77 -61 -106.5 -129t-24.5 -179z" />
<glyph unicode="@" horiz-adv-x="2031" d="M110 315q0 147 36 291t103 273.5t168 239.5t225 190t281 125.5t330 45.5q167 0 305 -52.5t230 -145t142.5 -219t50.5 -273.5q0 -172 -50 -326t-130.5 -258.5t-180.5 -165t-200 -60.5q-75 0 -123.5 42t-61.5 128t33 217q-84 -172 -198.5 -279.5t-230.5 -107.5 q-106 0 -168 85.5t-62 239.5q0 106 21.5 211t66.5 200.5t107 168.5t150 116t189 43q113 0 224 -82l19 62h136q-7 -41 -112 -702q-17 -108 -4.5 -153t57.5 -45q54 0 114.5 50t112 134t85 208.5t33.5 258.5q0 257 -154 412t-444 155q-203 0 -379 -85t-294 -225t-185 -320 t-67 -371q0 -284 147 -454t398 -170q150 0 306 54l31 -119q-46 -20 -149 -44t-215 -24q-318 0 -505.5 199.5t-187.5 531.5zM783 313q0 -184 105 -184q66 0 155 92t170 250t117 328q-14 31 -71.5 72.5t-133.5 41.5q-80 0 -147 -59.5t-108 -151t-64 -193.5t-23 -196z" />
<glyph unicode="A" horiz-adv-x="1108" d="M-65 0l678 1330h167l253 -1330h-178l-66 356h-496l-179 -356h-179zM360 491h406l-99 657z" />
<glyph unicode="B" horiz-adv-x="1092" d="M90 0l210 1330h383q170 0 267 -76t97 -213q0 -113 -66 -206t-153 -136q79 -30 128 -108t49 -177q0 -193 -134 -303.5t-382 -110.5h-399zM278 138h233q142 0 229 66t87 197q0 97 -58.5 156.5t-180.5 59.5h-232zM377 750h321q63 32 116.5 110.5t53.5 158.5q0 173 -217 173 h-204z" />
<glyph unicode="C" horiz-adv-x="1037" d="M120 522q0 233 81 420t237.5 297.5t362.5 110.5q85 0 167.5 -20.5t118.5 -42.5l-60 -124q-129 39 -244 39q-138 0 -248.5 -86t-172 -235.5t-61.5 -332.5q0 -204 87.5 -312t266.5 -108q131 0 255 55l24 -128q-129 -75 -321 -75q-235 0 -364 148t-129 394z" />
<glyph unicode="D" horiz-adv-x="1236" d="M90 0l210 1330h371q246 0 375.5 -145.5t129.5 -390.5q0 -239 -88 -417.5t-259 -277.5t-406 -99h-333zM278 138h186q114 0 209.5 41t166.5 119t111 200t40 275q0 197 -93 308t-266 111h-185z" />
<glyph unicode="E" horiz-adv-x="975" d="M90 0l210 1330h715l-22 -143h-541l-71 -446h521l-22 -143h-521l-74 -455h559l-21 -143h-733z" />
<glyph unicode="F" horiz-adv-x="931" d="M90 0l210 1330h696l-22 -143h-522l-71 -446h484l-22 -143h-484l-95 -598h-174z" />
<glyph unicode="G" horiz-adv-x="1160" d="M120 522q0 175 48.5 325.5t138.5 262.5t228.5 176t309.5 64q176 0 305 -72l-68 -121q-113 45 -256 45q-158 0 -278.5 -86.5t-183.5 -234.5t-63 -333q0 -206 93 -313t295 -107q90 0 164 29l66 404l-258 4l20 126h431l-98 -614q-62 -42 -162.5 -69.5t-203.5 -27.5 q-259 0 -393.5 146.5t-134.5 395.5z" />
<glyph unicode="H" horiz-adv-x="1259" d="M90 0l210 1330h175l-94 -589h590l94 589h174l-210 -1330h-175l95 598h-590l-95 -598h-174z" />
<glyph unicode="I" horiz-adv-x="494" d="M90 0l211 1330h173l-209 -1330h-175z" />
<glyph unicode="J" horiz-adv-x="722" d="M-15 48l63 124q67 -42 155 -42q64 0 107 42t54 116l164 1042h174l-163 -1028q-25 -155 -117 -238.5t-240 -83.5q-65 0 -117.5 20.5t-79.5 47.5z" />
<glyph unicode="K" horiz-adv-x="1092" d="M90 0l210 1330h172l-105 -660q120 28 217.5 80t173.5 131t114.5 194t31.5 255h171q31 -220 -76 -395t-309 -286l272 -649h-186l-239 579q-92 -34 -193 -54l-83 -525h-171z" />
<glyph unicode="L" horiz-adv-x="877" d="M90 0l211 1330h174l-189 -1187h521l-21 -143h-696z" />
<glyph unicode="M" horiz-adv-x="1551" d="M90 0l210 1330h251l213 -937l506 937h261l-211 -1330h-156l184 1167l-546 -999h-139l-232 999l-185 -1167h-156z" />
<glyph unicode="N" horiz-adv-x="1261" d="M90 0l210 1330h208l398 -1125l178 1125h157l-210 -1330h-209l-397 1123l-178 -1123h-157z" />
<glyph unicode="O" d="M120 502q0 139 30 266.5t89 233t139 183.5t186 121.5t226 43.5q212 0 340.5 -146.5t128.5 -375.5q0 -139 -30 -266.5t-89 -233t-139 -183.5t-186 -121.5t-226 -43.5q-212 0 -340.5 146.5t-128.5 375.5zM301 528q0 -188 83 -296t239 -108q121 0 226 91.5t167 248t62 338.5 q0 188 -83 296t-239 108q-121 0 -226 -91.5t-167 -248t-62 -338.5z" />
<glyph unicode="P" horiz-adv-x="1010" d="M90 0l210 1330h368q175 0 273.5 -89t98.5 -244q0 -217 -138.5 -347.5t-369.5 -130.5h-185l-83 -519h-174zM368 658h195q132 0 211.5 86.5t79.5 231.5q0 104 -55.5 160t-161.5 56h-184z" />
<glyph unicode="Q" d="M120 506q0 139 30 266.5t89 233t139 183.5t186 121.5t226 43.5q212 0 340.5 -146.5t128.5 -375.5q0 -228 -79.5 -418t-221.5 -302q103 -211 190 -298.5t187 -87.5q82 0 174 40l33 -126q-114 -56 -226 -56q-149 0 -252 96t-236 353q-112 -49 -239 -49q-212 0 -340.5 146.5 t-128.5 375.5zM301 532q0 -188 83 -296t239 -108q121 0 226 91.5t167 248t62 338.5q0 188 -83 296t-239 108q-121 0 -226 -91.5t-167 -248t-62 -338.5z" />
<glyph unicode="R" horiz-adv-x="1068" d="M90 0l210 1330h389q177 0 275.5 -86t98.5 -239q0 -132 -103 -256t-245 -178l77 -367q11 -54 37 -73.5t69 -19.5q36 0 69 7v-118q-54 -20 -126 -20q-174 0 -211 183l-76 378h-207l-86 -541h-171zM368 679h297q87 35 149.5 119t62.5 184q0 99 -55.5 154.5t-160.5 55.5h-210 z" />
<glyph unicode="S" horiz-adv-x="934" d="M41 56l54 131q132 -60 301 -60q128 0 204.5 58.5t76.5 162.5q0 67 -45.5 116t-153.5 113l-112 66q-91 54 -138.5 126.5t-47.5 176.5q0 120 66 214t171.5 142t227.5 48q153 0 278 -52l-47 -133q-118 38 -255 38q-120 0 -196.5 -64t-76.5 -163q0 -69 33.5 -117.5 t110.5 -94.5l119 -71q121 -72 178.5 -145t57.5 -173q0 -181 -128 -288t-346 -107q-103 0 -192 23t-140 53z" />
<glyph unicode="T" horiz-adv-x="980" d="M160 1187l21 143h889l-21 -143h-358l-187 -1187h-174l188 1187h-358z" />
<glyph unicode="U" horiz-adv-x="1187" d="M143 512l129 818h174l-127 -804q-9 -54 -11.5 -97.5t0.5 -91t18 -83t41.5 -64.5t72.5 -44.5t108 -15.5q129 0 223.5 104t120.5 270l131 826h174l-128 -812q-40 -256 -183 -397t-371 -141q-85 0 -152 19.5t-110 56t-71.5 84.5t-39.5 109t-10.5 125.5t11.5 137.5z" />
<glyph unicode="V" horiz-adv-x="1134" d="M150 1330h186l192 -1094l537 1094h199l-677 -1330h-185z" />
<glyph unicode="W" horiz-adv-x="1722" d="M160 1330h181l108 -1138l469 1118h159l116 -1118l462 1138h187l-576 -1330h-199l-110 1053l-444 -1053h-198z" />
<glyph unicode="X" horiz-adv-x="1114" d="M-35 0l540 685l-303 645h182l230 -520l402 520h193l-519 -656l317 -674h-178l-248 550l-423 -550h-193z" />
<glyph unicode="Y" horiz-adv-x="969" d="M125 1330h163l219 -657l428 657h179l-537 -818l-82 -512h-175l83 512z" />
<glyph unicode="Z" horiz-adv-x="978" d="M-15 0l18 123l798 1064h-591l22 143h796l-19 -123l-800 -1064h666l-21 -143h-869z" />
<glyph unicode="[" horiz-adv-x="666" d="M110 -279l298 1884h388l-20 -128l-232 -4l-256 -1617h231l-20 -128z" />
<glyph unicode="\" horiz-adv-x="1141" d="M0 1585h156l1065 -1835h-156z" />
<glyph unicode="]" horiz-adv-x="636" d="M-90 -279l20 128l232 4l256 1617h-231l20 128l389 7l-298 -1884h-388z" />
<glyph unicode="^" horiz-adv-x="1035" d="M140 795l442 685h156l227 -685h-168l-163 517l-326 -517h-168z" />
<glyph unicode="_" horiz-adv-x="1587" d="M153 -201l21 133h1097l-21 -133h-1097z" />
<glyph unicode="`" horiz-adv-x="683" d="M230 1362l84 149l394 -214l-55 -99z" />
<glyph unicode="a" horiz-adv-x="1046" d="M90 305q0 106 21.5 211t66.5 200.5t107 168.5t150 116t189 43q117 0 220 -88l24 88h128q-5 -32 -129 -811q-25 -159 -17 -233h-153q-9 28 -9 87.5t8 112.5q2 13 7.5 33.5t12 41.5t15 45t14.5 41t12 32.5t6 16.5q-30 -57 -65.5 -113t-82 -114.5t-93 -102.5t-100 -72 t-102.5 -28q-106 0 -168 85.5t-62 239.5zM264 313q0 -184 105 -184q35 0 86 38.5t105 107t105 153.5t92.5 188t60.5 201q-16 16 -41 34.5t-71 37.5t-90 19q-67 0 -125.5 -38.5t-99 -101t-70 -141t-43.5 -159t-14 -155.5z" />
<glyph unicode="b" horiz-adv-x="1041" d="M105 72q147 924 187 1171q20 128 11 207l152 30q11 -30 12 -92t-9 -112l-73 -452q-5 -29 -16 -74t-20 -76l-9 -31q27 52 58 102.5t74.5 106t87.5 97t97.5 68.5t103.5 27q106 0 168 -85.5t62 -239.5q0 -106 -21.5 -211t-66.5 -200.5t-107 -168.5t-150 -116t-189 -43 t-197.5 30.5t-154.5 61.5zM276 168q22 -15 78 -34.5t116 -19.5q54 0 103.5 27.5t86.5 74t67.5 106.5t49.5 127t29.5 134t10.5 128q0 184 -105 184q-35 0 -81.5 -35.5t-98 -103t-99.5 -154.5t-90 -201t-67 -233z" />
<glyph unicode="c" horiz-adv-x="814" d="M90 305q0 134 35.5 263.5t101 236.5t171 173t233.5 66q116 0 208 -46l-52 -136q-95 33 -175 33q-82 0 -150.5 -57.5t-110 -146t-64.5 -188t-23 -190.5q0 -189 135 -189q109 0 292 85l35 -127q-177 -102 -376 -102q-120 0 -190 85.5t-70 239.5z" />
<glyph unicode="d" horiz-adv-x="1053" d="M90 305q0 106 21.5 211t66.5 200.5t107 168.5t150 116t189 43q104 0 200 -71l44 270q20 128 11 207l152 30q11 -30 12 -92t-9 -112q-58 -355 -167 -1043q-25 -159 -17 -233h-153q-9 28 -9 87.5t8 112.5q2 13 7.5 33.5t12 41.5t15 45t14.5 41t12 32.5t6 16.5 q-39 -74 -86 -143.5t-105.5 -137t-125 -108.5t-126.5 -41q-106 0 -168 85.5t-62 239.5zM264 313q0 -184 105 -184q44 0 111 61t133 155.5t123.5 222.5t81.5 249q-26 29 -82.5 60t-119.5 31q-67 0 -125.5 -38.5t-99 -101t-70 -141t-43.5 -159t-14 -155.5z" />
<glyph unicode="e" horiz-adv-x="884" d="M90 305q0 106 22.5 211.5t67.5 200t106.5 168t145.5 116.5t179 43q118 0 183 -58.5t65 -155.5q0 -170 -156 -270.5t-429 -121.5q-10 -61 -10 -125q0 -189 145 -189q118 0 307 87l30 -129q-177 -102 -386 -102q-124 0 -197 85.5t-73 239.5zM294 539q171 31 281 103 t110 175q0 41 -20 67t-63 26q-74 0 -137.5 -54.5t-104.5 -135t-66 -181.5z" />
<glyph unicode="f" horiz-adv-x="625" d="M80 -396l205 1287h-149l19 119l152 10q-2 87 10 174q43 286 366 286q92 0 167 -33l-40 -124q-67 20 -144 20q-174 0 -196 -167q-5 -36 -6 -83t0 -69h252l-21 -133h-249l-206 -1287h-160z" />
<glyph unicode="g" horiz-adv-x="1051" d="M47 -343l39 127q139 -64 286 -64q126 0 205.5 64.5t99.5 180.5q8 45 24 160.5t28 179.5l35 106q-39 -74 -86 -143.5t-106 -137t-125 -109t-127 -41.5q-106 0 -168 85.5t-62 239.5q0 106 21.5 211t66.5 200.5t107 168.5t150 116t189 43q117 0 220 -88l24 88h128l-33 -206 q-42 -265 -68.5 -454.5t-37.5 -279.5t-17 -124q-33 -201 -143 -298.5t-332 -97.5q-104 0 -189.5 23.5t-128.5 49.5zM264 313q0 -184 105 -184q35 0 86 38.5t105 107t105 153.5t92.5 188t60.5 201q-16 16 -41 34.5t-71 37.5t-90 19q-67 0 -125.5 -38.5t-99 -101t-70 -141 t-43.5 -159t-14 -155.5z" />
<glyph unicode="h" horiz-adv-x="1075" d="M100 0l198 1243q20 128 11 207l152 30q11 -29 11 -92t-8 -112l-72 -452q-10 -59 -33.5 -142t-33.5 -111q63 130 136.5 233t163.5 171.5t173 68.5q123 0 167 -87.5t21 -234.5l-78 -489q-25 -154 -17 -233h-148q-9 28 -9 88.5t8 111.5l78 491q15 88 -1.5 136t-73.5 48 q-50 0 -120 -59.5t-136.5 -153t-122.5 -223.5t-76 -257l-29 -182h-161z" />
<glyph unicode="i" horiz-adv-x="481" d="M129 200l131 824h161l-126 -791q-25 -154 -17 -233h-148q-9 28 -9 88.5t8 111.5zM280 1333q0 55 39 91t94 36q41 0 65.5 -26.5t24.5 -68.5q0 -56 -39.5 -92t-94.5 -36q-41 0 -65 26.5t-24 69.5z" />
<glyph unicode="j" horiz-adv-x="484" d="M-225 -382l33 124q48 -22 104 -22q81 0 120.5 47.5t56.5 153.5l175 1103h160l-172 -1087q-31 -193 -109.5 -273t-222.5 -80q-89 0 -145 34zM283 1333q0 55 39 91t94 36q41 0 65.5 -26.5t24.5 -68.5q0 -56 -39.5 -92t-94.5 -36q-41 0 -65 26.5t-24 69.5z" />
<glyph unicode="k" horiz-adv-x="935" d="M100 0l198 1243q20 128 11 207l152 30q11 -30 12 -92t-9 -112l-115 -729q81 23 152.5 65t129.5 100.5t89 139.5t24 172l167 20q7 -46 9 -86.5t-8.5 -79t-22.5 -71t-33 -63.5t-41 -56t-45.5 -48.5t-46.5 -40.5t-45 -33t-40 -25.5t-32 -17.5l217 -523h-185l-174 463 q-65 -28 -136 -49l-65 -414h-163z" />
<glyph unicode="l" horiz-adv-x="481" d="M129 200l167 1043q20 128 11 207l152 30q11 -30 12 -92t-9 -112l-167 -1043q-25 -154 -17 -233h-148q-9 28 -9 88.5t8 111.5z" />
<glyph unicode="m" horiz-adv-x="1645" d="M100 0l126 791q25 154 17 233h153q9 -28 9 -88.5t-8 -111.5q-13 -78 -71 -252q93 202 214 337t238 135q123 0 167 -88t21 -234q-6 -33 -49 -147q60 129 130.5 231.5t156 170t164.5 67.5q123 0 167 -87.5t21 -234.5l-78 -489q-25 -154 -17 -233h-148q-9 28 -9 88.5 t8 111.5l78 491q15 88 -1.5 136t-73.5 48q-48 0 -114.5 -59.5t-130.5 -153t-117 -223.5t-73 -257l-29 -182h-161l112 706q25 169 -77 169q-48 0 -114.5 -59.5t-130.5 -153t-117 -223.5t-73 -257l-29 -182h-161z" />
<glyph unicode="n" horiz-adv-x="1075" d="M100 0l126 791q25 154 17 233h153q9 -28 9 -88.5t-8 -111.5q-15 -95 -72 -253q63 130 136.5 233t163.5 171.5t173 68.5q123 0 167 -87.5t21 -234.5l-78 -489q-25 -154 -17 -233h-148q-9 28 -9 88.5t8 111.5l78 491q15 88 -1.5 136t-73.5 48q-50 0 -120 -59.5t-136.5 -153 t-122.5 -223.5t-76 -257l-29 -182h-161z" />
<glyph unicode="o" horiz-adv-x="991" d="M90 343q0 201 68 361t189 250t274 90q148 0 234 -97.5t86 -265.5q0 -201 -68 -361t-189 -250t-274 -90q-148 0 -234 97.5t-86 265.5zM264 361q0 -247 174 -247q87 0 163 74.5t121 201.5t45 273q0 247 -174 247q-87 0 -163 -74.5t-121 -201.5t-45 -273z" />
<glyph unicode="p" horiz-adv-x="1058" d="M30 -396q95 578 191 1187q25 159 17 233h153q9 -28 9 -87.5t-8 -112.5q-5 -34 -31 -109.5t-37 -100.5q39 74 86 143.5t106 137t125 108.5t127 41q106 0 168 -85.5t62 -239.5q0 -106 -21.5 -211t-66.5 -200.5t-107 -168.5t-150 -116t-189 -43q-108 0 -200 71l-73 -447 h-161zM270 207q26 -29 82.5 -60t119.5 -31q67 0 125.5 38.5t99 101t70 141t43.5 159t14 155.5q0 184 -105 184q-35 0 -86 -38.5t-105 -107t-105 -153.5t-92.5 -188t-60.5 -201z" />
<glyph unicode="q" horiz-adv-x="1036" d="M90 305q0 106 21.5 211t66.5 200.5t107 168.5t150 116t189 43t197.5 -30.5t154.5 -61.5l-217 -1348h-161l98 596q5 29 15.5 71.5t20.5 76.5l9 33q-27 -52 -58 -102.5t-74.5 -106t-87.5 -97t-97.5 -68.5t-103.5 -27q-106 0 -168 85.5t-62 239.5zM264 313q0 -184 105 -184 q44 0 105.5 57t124 151.5t119.5 233t87 285.5q-22 15 -78 34.5t-116 19.5q-80 0 -148.5 -59t-110 -149.5t-65 -193t-23.5 -195.5z" />
<glyph unicode="r" horiz-adv-x="733" d="M100 0l126 791q25 154 17 233h153q9 -28 9 -88.5t-8 -111.5q-5 -31 -22 -96t-22 -78q19 44 32.5 72.5t37 74t44 76t49.5 66t57 56t64 35t73 14.5q41 0 73 -15l-32 -182q-25 7 -62 7q-90 -1 -172 -94t-140 -243.5t-87 -334.5l-29 -182h-161z" />
<glyph unicode="s" horiz-adv-x="741" d="M40 30l37 136q111 -43 235 -43q84 0 135.5 30.5t51.5 95.5q0 59 -37 104.5t-140 122.5q-113 84 -153.5 145.5t-40.5 137.5q0 124 94.5 204.5t251.5 80.5q126 0 237 -37l-28 -142q-115 31 -220 31q-79 0 -125 -34.5t-46 -86.5q0 -57 29.5 -95t113.5 -102 q122 -92 175 -161.5t53 -148.5q0 -129 -90.5 -208.5t-268.5 -79.5q-148 0 -264 50z" />
<glyph unicode="t" horiz-adv-x="715" d="M120 891l19 119l155 10l41 231l154 19l-39 -246h270l-21 -133h-268l-93 -590q-16 -109 -0.5 -144t72.5 -35q80 0 209 52l30 -125q-53 -26 -130 -47.5t-149 -21.5q-128 0 -176 70.5t-22 226.5l97 614h-149z" />
<glyph unicode="u" horiz-adv-x="1055" d="M129 302l78 489q25 154 17 233h148q9 -28 9 -88.5t-8 -111.5l-78 -491q-15 -88 1.5 -136t73.5 -48q48 0 114.5 59.5t130.5 153t117 223.5t73 257l29 182h161l-126 -791q-25 -154 -17 -233h-153q-9 28 -9 88.5t8 111.5q10 58 34.5 138.5t36.5 113.5q-60 -129 -131 -232.5 t-156.5 -171.5t-164.5 -68q-123 0 -167 87.5t-21 234.5z" />
<glyph unicode="v" horiz-adv-x="883" d="M125 1024h161q22 -70 28 -154l44 -691q153 138 244.5 321.5t91.5 379.5q0 86 -19 144l166 20q27 -71 27 -167q0 -220 -144.5 -458.5t-383.5 -418.5h-132l-50 797q-11 172 -33 227z" />
<glyph unicode="w" horiz-adv-x="1418" d="M135 1024h161q24 -66 33 -154l56 -735q273 315 305 627q-13 111 -48 242l188 20q33 -87 33 -180q0 -65 -13 -141l45 -568q329 367 329 724q0 94 -24 165l160 20q33 -87 33 -180q0 -224 -124 -450.5t-353 -413.5h-162l-30 424q-113 -236 -318 -424h-162l-68 797 q-16 168 -41 227z" />
<glyph unicode="x" horiz-adv-x="933" d="M-35 0l422 524l-229 500h177l168 -382l281 382h184l-382 -504l261 -520h-177l-203 406l-318 -406h-184z" />
<glyph unicode="y" horiz-adv-x="913" d="M-145 -376l40 123q50 -27 110 -27q44 0 79.5 14t66 49.5t49.5 92t27 146t1 207.5q-11 190 -28.5 377t-32.5 293.5t-22 124.5h161q9 -27 22 -110.5t30.5 -263t29.5 -394.5q7 -125 -5 -230l56 91q126 168 205.5 376t79.5 387q0 86 -19 144l166 20q27 -71 27 -167 q0 -253 -179.5 -570t-457.5 -607q-98 -116 -248 -116q-95 0 -158 40z" />
<glyph unicode="z" horiz-adv-x="821" d="M-10 60l611 831h-433l21 133h627l-18 -116l-520 -710q23 -36 69.5 -55t104.5 -19q94 0 248 87l40 -134q-151 -97 -309 -97q-91 0 -145.5 44.5t-76.5 108.5l-115 -153z" />
<glyph unicode="{" horiz-adv-x="740" d="M120 -66q0 33 10 68t19.5 57t37 60.5t36.5 50t44 54.5q32 39 45 55.5t34 48.5t29 59.5t8 56.5q0 65 -43 108.5t-127 43.5h-28l21 135h36q97 0 156.5 58.5t59.5 131.5q0 60 -30 127.5t-60 136t-30 128.5q0 131 97 221.5t243 90.5q74 0 142 -28l-49 -126q-65 21 -128 21 q-54 0 -96.5 -38.5t-51.5 -88.5q-6 -36 2 -75t18.5 -63t32.5 -68q66 -132 66 -215q0 -93 -62.5 -170t-152.5 -111q61 -26 100 -83t39 -121q0 -39 -12.5 -78.5t-39.5 -81.5t-46.5 -67.5t-55.5 -68.5q-38 -46 -55.5 -69.5t-36 -62.5t-18.5 -73q0 -54 32 -87.5t88 -33.5 q53 0 122 20l9 -126q-69 -27 -166 -27q-107 0 -173 65t-66 165z" />
<glyph unicode="|" horiz-adv-x="518" d="M20 -499l320 2022h158l-320 -2022h-158z" />
<glyph unicode="}" horiz-adv-x="770" d="M10 -268l49 126q65 -21 128 -21q54 0 96.5 38.5t51.5 88.5q6 36 -2 75t-18.5 63t-32.5 68q-66 132 -66 215q0 93 62.5 170t152.5 111q-61 26 -100 83t-39 121q0 39 12.5 78.5t39.5 81.5t46.5 67.5t55.5 68.5q38 46 55.5 69.5t36 62.5t18.5 73q0 54 -32 87.5t-88 33.5 q-53 0 -122 -20l-9 126q69 27 166 27q107 0 173 -65t66 -165q0 -33 -10 -68t-19.5 -57t-37 -60.5t-36.5 -50t-44 -54.5q-32 -39 -45 -55.5t-34 -48.5t-29 -59.5t-8 -56.5q0 -65 43 -108.5t127 -43.5h28l-21 -135h-36q-97 0 -156.5 -58.5t-59.5 -131.5q0 -60 30 -127.5 t60 -136t30 -128.5q0 -131 -97 -221.5t-243 -90.5q-74 0 -142 28z" />
<glyph unicode="~" horiz-adv-x="1062" d="M165 662q127 105 264 105q57 0 142 -35.5t131 -35.5q14 0 28.5 2t26.5 4.5t27 8.5t23.5 9.5t23.5 11l21 10.5t20.5 11.5t16.5 9.5l38 -95q-127 -105 -264 -105q-57 0 -142 35.5t-131 35.5q-14 0 -28.5 -2t-26.5 -4.5t-27 -8.5t-23.5 -9.5t-23.5 -11l-21 -10.5 t-20.5 -11.5t-16.5 -9.5z" />
<glyph unicode="&#xa1;" horiz-adv-x="474" d="M30 -306l183 950h123l-117 -950h-189zM201 917q0 55 39 91t94 36q41 0 65.5 -26.5t24.5 -68.5q0 -56 -39.5 -92t-94.5 -36q-41 0 -65 26.5t-24 69.5z" />
<glyph unicode="&#xa2;" horiz-adv-x="926" d="M101 560q-4 254 138 426t375 201l29 229h150l-42 -226q112 -11 187 -55l-52 -119q-112 41 -209 41q-177 0 -291 -136.5t-110 -340.5q2 -148 81 -232t226 -84q102 0 220 46l28 -118q-99 -56 -247 -63l-28 -217h-150l42 225q-161 28 -252.5 141t-94.5 282z" />
<glyph unicode="&#xa3;" horiz-adv-x="1014" d="M60 106q40 20 106 37q97 205 113 473h-144l20 128h121q4 119 16 208q28 192 144 295t293 103q141 0 250 -76l-63 -120q-99 54 -209 54q-92 0 -158.5 -66t-83.5 -176q-11 -67 -15 -222h329l-20 -128h-315q-14 -244 -122 -463q46 -2 147 -19t156 -18q58 -1 99.5 32.5 t76.5 105.5l108 -43q-75 -231 -302 -231q-47 0 -166.5 21.5t-204.5 19.5q-29 -29 -65 -51l-103 30z" />
<glyph unicode="&#xa4;" horiz-adv-x="1165" d="M20 225l197 207q-44 79 -44 180q0 174 115 302l-127 200l97 72l164 -166q110 59 245 59q131 0 222 -63l221 170l75 -72l-197 -207q44 -82 44 -179q0 -173 -115 -304l127 -199l-97 -71l-164 166q-114 -60 -245 -60q-132 0 -223 63l-220 -169zM338 628q0 -104 61.5 -168.5 t159.5 -64.5q126 0 217 91t91 226q0 103 -61 167.5t-160 64.5q-125 0 -216.5 -91t-91.5 -225z" />
<glyph unicode="&#xa5;" horiz-adv-x="1118" d="M180 470l20 128h788l-20 -128h-312l-74 -470h-166l74 470h-310zM204 734l20 128h177l-190 468h175l231 -586l419 586h172l-342 -468h183l-20 -128h-825z" />
<glyph unicode="&#xa6;" horiz-adv-x="518" d="M20 -499l123 779h158l-123 -779h-158zM217 744l123 779h158l-123 -779h-158z" />
<glyph unicode="&#xa7;" horiz-adv-x="944" d="M-35 -335l66 123q136 -60 243 -63q76 92 76 263q0 113 -32 247l-66 277q-66 276 -66 436q0 240 146.5 386t379.5 146q94 0 171.5 -24.5t125.5 -56.5l-66 -123q-136 60 -243 63q-76 -92 -76 -263q0 -117 31 -247l67 -277q66 -276 66 -436q0 -240 -146.5 -386t-380.5 -146 q-93 0 -170.5 24.5t-125.5 56.5zM352 973q0 -171 64 -429l67 -276q28 -113 28 -243q0 -185 -91 -281q202 71 202 349q0 165 -64 427l-67 276q-28 118 -28 243q0 185 91 281q-202 -71 -202 -347z" />
<glyph unicode="&#xa8;" horiz-adv-x="789" d="M210 1333q0 55 39 91t94 36q41 0 65.5 -26.5t24.5 -68.5q0 -56 -39.5 -92t-94.5 -36q-41 0 -65 26.5t-24 69.5zM596 1333q0 55 39 91t94 36q41 0 65.5 -26.5t24.5 -68.5q0 -56 -39.5 -92t-94.5 -36q-41 0 -65 26.5t-24 69.5z" />
<glyph unicode="&#xa9;" horiz-adv-x="1526" d="M120 569q0 155 66 300t174 250t253 168t297 63q160 0 290.5 -79.5t203 -214.5t72.5 -298q0 -156 -66.5 -300.5t-176 -248.5t-255.5 -166.5t-300 -62.5q-158 0 -286.5 78.5t-200 213t-71.5 297.5zM247 591q0 -210 130.5 -351t335.5 -141q120 0 236 51.5t203.5 137.5 t141.5 204t54 244q0 211 -132.5 353t-339.5 142q-118 0 -233 -52t-202 -138.5t-140.5 -205t-53.5 -244.5zM424 594q0 201 128.5 332.5t318.5 131.5q109 0 187 -52l-55 -98q-78 31 -156 31q-122 0 -198.5 -90.5t-76.5 -234.5q0 -105 52 -164t148 -59q86 0 170 34l22 -100 q-97 -54 -227 -54q-144 0 -228.5 88.5t-84.5 234.5z" />
<glyph unicode="&#xaa;" horiz-adv-x="642" d="M140 920q0 184 88 307t222 123q67 0 127 -60l19 50h106q-1 -8 -75 -461q-14 -87 -10 -136h-116q-13 40 -1 116l4 24q-102 -151 -211 -151q-73 0 -113 49t-40 139zM275 925q0 -82 57 -82q60 0 129 104t96 251q-44 47 -106 47q-78 0 -127 -90.5t-49 -229.5z" />
<glyph unicode="&#xab;" horiz-adv-x="1060" d="M140 517q225 215 417 452l101 -93q-108 -146 -340 -359q170 -225 226 -359l-130 -92q-126 249 -274 451zM551 517q152 146 367 410l102 -92q-113 -149 -290 -318q116 -155 190 -317l-132 -93q-124 256 -237 410z" />
<glyph unicode="&#xac;" horiz-adv-x="1238" d="M195 598l21 133h857l-71 -451h-148l50 318h-709z" />
<glyph unicode="&#xad;" horiz-adv-x="993" d="M210 466l21 133h542l-21 -133h-542z" />
<glyph unicode="&#xae;" horiz-adv-x="1526" d="M120 569q0 155 66 300t174 250t253 168t297 63q160 0 290.5 -79.5t203 -214.5t72.5 -298q0 -156 -66.5 -300.5t-176 -248.5t-255.5 -166.5t-300 -62.5q-158 0 -286.5 78.5t-200 213t-71.5 297.5zM247 591q0 -210 130.5 -351t335.5 -141q120 0 236 51.5t203.5 137.5 t141.5 204t54 244q0 211 -132.5 353t-339.5 142q-118 0 -233 -52t-202 -138.5t-140.5 -205t-53.5 -244.5zM486 276l121 768h242q113 0 175.5 -51t62.5 -143q0 -78 -54.5 -147t-134.5 -99l121 -328h-137l-109 302h-111l-48 -302h-128zM678 679h161q46 16 79 58t33 95 t-31 81.5t-90 28.5h-111z" />
<glyph unicode="&#xaf;" horiz-adv-x="792" d="M240 1284l21 133h551l-21 -133h-551z" />
<glyph unicode="&#xb0;" horiz-adv-x="578" d="M120 1042q0 137 84.5 222.5t223.5 85.5q99 0 154.5 -65t55.5 -158q0 -137 -84.5 -222.5t-223.5 -85.5q-99 0 -154.5 65t-55.5 158zM255 1054q0 -52 25.5 -88t76.5 -36q68 0 107 50t39 135q0 52 -25.5 88t-75.5 36q-69 0 -108 -50t-39 -135z" />
<glyph unicode="&#xb1;" horiz-adv-x="1171" d="M130 60l21 133h753l-21 -133h-753zM221 750l21 133h320l52 329h148l-52 -329h321l-21 -133h-321l-52 -327h-148l52 327h-320z" />
<glyph unicode="&#xb2;" horiz-adv-x="553" d="M120 751l14 91q169 107 239.5 175t70.5 143q0 83 -79 83q-25 0 -56.5 -9t-49.5 -17t-28 -14l-28 90q13 8 35.5 19.5t67.5 24.5t86 13q91 0 136 -48.5t45 -126.5q0 -94 -64 -166t-194 -154h236l-16 -104h-415z" />
<glyph unicode="&#xb3;" horiz-adv-x="507" d="M95 768l43 96q62 -28 128 -28q111 0 111 93q0 35 -21.5 53t-59.5 18h-84l15 94h129q32 19 42 77q5 36 -15 55t-57 19q-55 0 -127 -27l-20 93q74 39 167 39q89 0 135 -41t46 -107q0 -50 -28.5 -87.5t-61.5 -58.5h-2q27 -15 47 -47t20 -76q0 -92 -68.5 -147t-185.5 -55 q-94 0 -153 37z" />
<glyph unicode="&#xb4;" horiz-adv-x="666" d="M210 1289l448 229l58 -150l-467 -170z" />
<glyph unicode="&#xb6;" horiz-adv-x="1124" d="M190 854q0 143 67.5 252.5t180.5 166.5t252 57h424l-22 -135h-142l-253 -1591h-161l251 1591h-123l-108 -684q-169 0 -267.5 91.5t-98.5 251.5z" />
<glyph unicode="&#xb7;" horiz-adv-x="433" d="M110 496q0 55 39 91t94 36q41 0 65.5 -26.5t24.5 -68.5q0 -56 -39.5 -92t-94.5 -36q-41 0 -65 26.5t-24 69.5z" />
<glyph unicode="&#xb8;" horiz-adv-x="441" d="M-70 -400l31 91q30 -10 82 -10q46 0 65 20.5t19 49.5q0 50 -69 50h-65l24 94h84q69 0 109.5 -30.5t40.5 -87.5q0 -89 -64.5 -141t-172.5 -52q-50 0 -84 16z" />
<glyph unicode="&#xb9;" horiz-adv-x="423" d="M160 1206l3 100q95 13 257 44h23l-95 -599h-127l75 473q-70 -12 -136 -18z" />
<glyph unicode="&#xba;" horiz-adv-x="595" d="M120 983q0 156 89 261.5t231 105.5q100 0 157.5 -72t57.5 -180q0 -156 -89 -261.5t-231 -105.5q-100 0 -157.5 72t-57.5 180zM255 995q0 -69 26.5 -111t80.5 -42q71 0 114.5 70.5t43.5 172.5q0 70 -26.5 112t-80.5 42q-71 0 -114.5 -70.5t-43.5 -173.5z" />
<glyph unicode="&#xbb;" horiz-adv-x="1080" d="M80 190q113 149 290 318q-116 155 -190 317l132 93q124 -256 237 -410q-152 -146 -367 -410zM442 149q108 146 340 359q-170 225 -226 359l130 92q126 -249 274 -451q-225 -215 -417 -452z" />
<glyph unicode="&#xbf;" horiz-adv-x="674" d="M-10 -74q0 64 15 113t60 99.5t74.5 76t110.5 88.5q7 6 11 9.5t11 8.5t12 9q77 61 106.5 129t24.5 179l139 17q22 -135 -20 -237t-150 -187q-50 -39 -66.5 -52.5t-51 -43t-46 -44.5t-28.5 -39.5t-22 -46.5t-5 -48q0 -70 52.5 -106.5t150.5 -36.5q106 0 184 20l-22 -138 q-108 -22 -191 -22q-158 0 -253.5 70.5t-95.5 181.5zM401 917q0 55 39 91t94 36q41 0 65.5 -26.5t24.5 -68.5q0 -56 -39.5 -92t-94.5 -36q-41 0 -65 26.5t-24 69.5z" />
<glyph unicode="&#xc0;" horiz-adv-x="1108" d="M-65 0l678 1330h167l253 -1330h-178l-66 356h-496l-179 -356h-179zM360 491h406l-99 657zM444 1662l84 149l394 -214l-55 -99z" />
<glyph unicode="&#xc1;" horiz-adv-x="1108" d="M-65 0l678 1330h167l253 -1330h-178l-66 356h-496l-179 -356h-179zM360 491h406l-99 657zM485 1589l448 229l58 -150l-467 -170z" />
<glyph unicode="&#xc2;" horiz-adv-x="1108" d="M-65 0l678 1330h167l253 -1330h-178l-66 356h-496l-179 -356h-179zM360 491h406l-99 657zM436 1599q142 89 318 221q145 -142 245 -219l-100 -110q-96 86 -169 168q-102 -84 -226 -168z" />
<glyph unicode="&#xc3;" horiz-adv-x="1108" d="M-65 0l678 1330h167l253 -1330h-178l-66 356h-496l-179 -356h-179zM360 491h406l-99 657zM418 1623q96 129 208 129q36 0 96 -32.5t85 -32.5q42 0 107 65l74 -75q-96 -129 -208 -129q-36 0 -96 32.5t-85 32.5q-42 0 -107 -65z" />
<glyph unicode="&#xc4;" horiz-adv-x="1108" d="M-65 0l678 1330h167l253 -1330h-178l-66 356h-496l-179 -356h-179zM360 491h406l-99 657zM431 1633q0 55 39 91t94 36q41 0 65.5 -26.5t24.5 -68.5q0 -56 -39.5 -92t-94.5 -36q-41 0 -65 26.5t-24 69.5zM817 1633q0 55 39 91t94 36q41 0 65.5 -26.5t24.5 -68.5 q0 -56 -39.5 -92t-94.5 -36q-41 0 -65 26.5t-24 69.5z" />
<glyph unicode="&#xc5;" horiz-adv-x="1108" d="M-65 0l678 1330h167l253 -1330h-178l-66 356h-496l-179 -356h-179zM360 491h406l-99 657zM525 1621q0 95 73 165t172 70q73 0 122.5 -51t49.5 -124q0 -95 -73.5 -165.5t-173.5 -70.5q-72 0 -121 51t-49 125zM635 1639q0 -35 24 -60.5t58 -25.5q46 0 80.5 33.5t34.5 76.5 q0 36 -24.5 60.5t-59.5 24.5q-44 0 -78.5 -33t-34.5 -76z" />
<glyph unicode="&#xc6;" horiz-adv-x="1639" d="M-80 0l1101 1330h658l-22 -143h-491l-71 -446h471l-22 -143h-471l-74 -455h509l-21 -143h-678l56 354h-462l-291 -354h-192zM520 497h367l88 554z" />
<glyph unicode="&#xc7;" horiz-adv-x="1037" d="M120 522q0 233 81 420t237.5 297.5t362.5 110.5q85 0 167.5 -20.5t118.5 -42.5l-60 -124q-129 39 -244 39q-138 0 -248.5 -86t-172 -235.5t-61.5 -332.5q0 -204 87.5 -312t266.5 -108q131 0 255 55l24 -128q-129 -75 -321 -75q-235 0 -364 148t-129 394zM345 -400l31 91 q30 -10 82 -10q46 0 65 20.5t19 49.5q0 50 -69 50h-65l24 94h84q69 0 109.5 -30.5t40.5 -87.5q0 -89 -64.5 -141t-172.5 -52q-50 0 -84 16z" />
<glyph unicode="&#xc8;" horiz-adv-x="975" d="M90 0l210 1330h715l-22 -143h-541l-71 -446h521l-22 -143h-521l-74 -455h559l-21 -143h-733zM440 1662l84 149l394 -214l-55 -99z" />
<glyph unicode="&#xc9;" horiz-adv-x="975" d="M90 0l210 1330h715l-22 -143h-541l-71 -446h521l-22 -143h-521l-74 -455h559l-21 -143h-733zM503 1589l448 229l58 -150l-467 -170z" />
<glyph unicode="&#xca;" horiz-adv-x="975" d="M90 0l210 1330h715l-22 -143h-541l-71 -446h521l-22 -143h-521l-74 -455h559l-21 -143h-733zM442 1599q142 89 318 221q145 -142 245 -219l-100 -110q-96 86 -169 168q-102 -84 -226 -168z" />
<glyph unicode="&#xcb;" horiz-adv-x="975" d="M90 0l210 1330h715l-22 -143h-541l-71 -446h521l-22 -143h-521l-74 -455h559l-21 -143h-733zM424 1633q0 55 39 91t94 36q41 0 65.5 -26.5t24.5 -68.5q0 -56 -39.5 -92t-94.5 -36q-41 0 -65 26.5t-24 69.5zM810 1633q0 55 39 91t94 36q41 0 65.5 -26.5t24.5 -68.5 q0 -56 -39.5 -92t-94.5 -36q-41 0 -65 26.5t-24 69.5z" />
<glyph unicode="&#xcc;" horiz-adv-x="494" d="M90 0l211 1330h173l-209 -1330h-175zM133 1662l84 149l394 -214l-55 -99z" />
<glyph unicode="&#xcd;" horiz-adv-x="494" d="M90 0l211 1330h173l-209 -1330h-175zM188 1589l448 229l58 -150l-467 -170z" />
<glyph unicode="&#xce;" horiz-adv-x="494" d="M90 0l211 1330h173l-209 -1330h-175zM152 1599q142 89 318 221q145 -142 245 -219l-100 -110q-96 86 -169 168q-102 -84 -226 -168z" />
<glyph unicode="&#xcf;" horiz-adv-x="494" d="M90 0l211 1330h173l-209 -1330h-175zM160 1632q0 55 39 91t94 36q41 0 65.5 -26.5t24.5 -68.5q0 -56 -39.5 -92t-94.5 -36q-41 0 -65 26.5t-24 69.5zM506 1632q0 55 39 91t94 36q41 0 65.5 -26.5t24.5 -68.5q0 -56 -39.5 -92t-94.5 -36q-41 0 -65 26.5t-24 69.5z" />
<glyph unicode="&#xd0;" horiz-adv-x="1296" d="M54 598l21 133h190l95 599h371q246 0 375.5 -145.5t129.5 -390.5q0 -239 -88 -417.5t-259 -277.5t-406 -99h-333l94 598h-190zM338 138h186q114 0 209.5 41t166.5 119t111 200t40 275q0 197 -93 308t-266 111h-185l-74 -461h345l-21 -133h-345z" />
<glyph unicode="&#xd1;" horiz-adv-x="1261" d="M90 0l210 1330h208l398 -1125l178 1125h157l-210 -1330h-209l-397 1123l-178 -1123h-157zM536 1623q96 129 208 129q36 0 96 -32.5t85 -32.5q42 0 107 65l74 -75q-96 -129 -208 -129q-36 0 -96 32.5t-85 32.5q-42 0 -107 -65z" />
<glyph unicode="&#xd2;" d="M120 502q0 139 30 266.5t89 233t139 183.5t186 121.5t226 43.5q212 0 340.5 -146.5t128.5 -375.5q0 -139 -30 -266.5t-89 -233t-139 -183.5t-186 -121.5t-226 -43.5q-212 0 -340.5 146.5t-128.5 375.5zM301 528q0 -188 83 -296t239 -108q121 0 226 91.5t167 248t62 338.5 q0 188 -83 296t-239 108q-121 0 -226 -91.5t-167 -248t-62 -338.5zM569 1662l84 149l394 -214l-55 -99z" />
<glyph unicode="&#xd3;" d="M120 502q0 139 30 266.5t89 233t139 183.5t186 121.5t226 43.5q212 0 340.5 -146.5t128.5 -375.5q0 -139 -30 -266.5t-89 -233t-139 -183.5t-186 -121.5t-226 -43.5q-212 0 -340.5 146.5t-128.5 375.5zM301 528q0 -188 83 -296t239 -108q121 0 226 91.5t167 248t62 338.5 q0 188 -83 296t-239 108q-121 0 -226 -91.5t-167 -248t-62 -338.5zM574 1589l448 229l58 -150l-467 -170z" />
<glyph unicode="&#xd4;" d="M120 502q0 139 30 266.5t89 233t139 183.5t186 121.5t226 43.5q212 0 340.5 -146.5t128.5 -375.5q0 -139 -30 -266.5t-89 -233t-139 -183.5t-186 -121.5t-226 -43.5q-212 0 -340.5 146.5t-128.5 375.5zM301 528q0 -188 83 -296t239 -108q121 0 226 91.5t167 248t62 338.5 q0 188 -83 296t-239 108q-121 0 -226 -91.5t-167 -248t-62 -338.5zM551 1599q142 89 318 221q145 -142 245 -219l-100 -110q-96 86 -169 168q-102 -84 -226 -168z" />
<glyph unicode="&#xd5;" d="M120 502q0 139 30 266.5t89 233t139 183.5t186 121.5t226 43.5q212 0 340.5 -146.5t128.5 -375.5q0 -139 -30 -266.5t-89 -233t-139 -183.5t-186 -121.5t-226 -43.5q-212 0 -340.5 146.5t-128.5 375.5zM301 528q0 -188 83 -296t239 -108q121 0 226 91.5t167 248t62 338.5 q0 188 -83 296t-239 108q-121 0 -226 -91.5t-167 -248t-62 -338.5zM547 1623q96 129 208 129q36 0 96 -32.5t85 -32.5q42 0 107 65l74 -75q-96 -129 -208 -129q-36 0 -96 32.5t-85 32.5q-42 0 -107 -65z" />
<glyph unicode="&#xd6;" d="M120 502q0 139 30 266.5t89 233t139 183.5t186 121.5t226 43.5q212 0 340.5 -146.5t128.5 -375.5q0 -139 -30 -266.5t-89 -233t-139 -183.5t-186 -121.5t-226 -43.5q-212 0 -340.5 146.5t-128.5 375.5zM301 528q0 -188 83 -296t239 -108q121 0 226 91.5t167 248t62 338.5 q0 188 -83 296t-239 108q-121 0 -226 -91.5t-167 -248t-62 -338.5zM546 1633q0 55 39 91t94 36q41 0 65.5 -26.5t24.5 -68.5q0 -56 -39.5 -92t-94.5 -36q-41 0 -65 26.5t-24 69.5zM932 1633q0 55 39 91t94 36q41 0 65.5 -26.5t24.5 -68.5q0 -56 -39.5 -92t-94.5 -36 q-41 0 -65 26.5t-24 69.5z" />
<glyph unicode="&#xd7;" horiz-adv-x="1201" d="M170 356l360 311l-260 309l111 96l260 -310l360 310l80 -95l-359 -311l263 -311l-110 -96l-263 311l-360 -311z" />
<glyph unicode="&#xd8;" d="M13 -69l198 244q-91 136 -91 327q0 139 30 266.5t89 233t139 183.5t186 121.5t226 43.5q169 0 291 -100l180 223l105 -74l-198 -245q91 -138 91 -326q0 -139 -30 -266.5t-89 -233t-139 -183.5t-186 -121.5t-226 -43.5q-172 0 -291 99l-180 -222zM301 528q0 -115 32 -202 l643 794q-83 86 -220 86q-121 0 -226 -91.5t-167 -248t-62 -338.5zM403 209q82 -85 220 -85q121 0 226 91.5t167 248t62 338.5q0 114 -32 202z" />
<glyph unicode="&#xd9;" horiz-adv-x="1187" d="M143 512l129 818h174l-127 -804q-9 -54 -11.5 -97.5t0.5 -91t18 -83t41.5 -64.5t72.5 -44.5t108 -15.5q129 0 223.5 104t120.5 270l131 826h174l-128 -812q-40 -256 -183 -397t-371 -141q-85 0 -152 19.5t-110 56t-71.5 84.5t-39.5 109t-10.5 125.5t11.5 137.5zM494 1662 l84 149l394 -214l-55 -99z" />
<glyph unicode="&#xda;" horiz-adv-x="1187" d="M143 512l129 818h174l-127 -804q-9 -54 -11.5 -97.5t0.5 -91t18 -83t41.5 -64.5t72.5 -44.5t108 -15.5q129 0 223.5 104t120.5 270l131 826h174l-128 -812q-40 -256 -183 -397t-371 -141q-85 0 -152 19.5t-110 56t-71.5 84.5t-39.5 109t-10.5 125.5t11.5 137.5zM573 1589 l448 229l58 -150l-467 -170z" />
<glyph unicode="&#xdb;" horiz-adv-x="1187" d="M143 512l129 818h174l-127 -804q-9 -54 -11.5 -97.5t0.5 -91t18 -83t41.5 -64.5t72.5 -44.5t108 -15.5q129 0 223.5 104t120.5 270l131 826h174l-128 -812q-40 -256 -183 -397t-371 -141q-85 0 -152 19.5t-110 56t-71.5 84.5t-39.5 109t-10.5 125.5t11.5 137.5zM496 1599 q142 89 318 221q145 -142 245 -219l-100 -110q-96 86 -169 168q-102 -84 -226 -168z" />
<glyph unicode="&#xdc;" horiz-adv-x="1187" d="M143 512l129 818h174l-127 -804q-9 -54 -11.5 -97.5t0.5 -91t18 -83t41.5 -64.5t72.5 -44.5t108 -15.5q129 0 223.5 104t120.5 270l131 826h174l-128 -812q-40 -256 -183 -397t-371 -141q-85 0 -152 19.5t-110 56t-71.5 84.5t-39.5 109t-10.5 125.5t11.5 137.5zM481 1633 q0 55 39 91t94 36q41 0 65.5 -26.5t24.5 -68.5q0 -56 -39.5 -92t-94.5 -36q-41 0 -65 26.5t-24 69.5zM867 1633q0 55 39 91t94 36q41 0 65.5 -26.5t24.5 -68.5q0 -56 -39.5 -92t-94.5 -36q-41 0 -65 26.5t-24 69.5z" />
<glyph unicode="&#xdd;" horiz-adv-x="969" d="M125 1330h163l219 -657l428 657h179l-537 -818l-82 -512h-175l83 512zM448 1589l448 229l58 -150l-467 -170z" />
<glyph unicode="&#xde;" horiz-adv-x="967" d="M90 0l211 1330h165l-46 -286h201q173 0 270.5 -85t97.5 -233q0 -206 -135 -328t-364 -122h-191l-44 -276h-165zM320 415h201q136 0 214 76t78 212q0 101 -57 152t-166 51h-191z" />
<glyph unicode="&#xdf;" horiz-adv-x="1056" d="M35 -396l233 1470q29 177 159 291.5t303 114.5q146 0 228.5 -82t82.5 -196q0 -101 -44 -170.5t-148 -157.5q-5 -4 -23 -19.5t-24 -20.5t-20.5 -18t-20 -20t-15 -19.5t-13 -22t-7 -22t-3.5 -24.5q0 -31 21.5 -59.5t75.5 -76.5q48 -42 74 -68t51.5 -59.5t35.5 -67.5t10 -75 q0 -150 -97.5 -236t-264.5 -86q-70 0 -136 19t-107 45l63 124q102 -45 209 -45q80 0 126 41.5t46 113.5q0 47 -31 86.5t-107 106.5q-38 34 -53 48.5t-38.5 43t-32 56.5t-8.5 62q0 44 15.5 84.5t49 78.5t57 60t68.5 59q65 51 93 103t28 123q0 67 -41 110.5t-126 43.5 q-101 0 -177.5 -76t-98.5 -211l-230 -1452h-163z" />
<glyph unicode="&#xe0;" horiz-adv-x="1054" d="M90 305q0 106 21.5 211t66.5 200.5t107 168.5t150 116t189 43q117 0 220 -88l24 88h128q-5 -32 -129 -811q-25 -159 -17 -233h-153q-9 28 -9 87.5t8 112.5q2 13 7.5 33.5t12 41.5t15 45t14.5 41t12 32.5t6 16.5q-30 -57 -65.5 -113t-82 -114.5t-93 -102.5t-100 -72 t-102.5 -28q-106 0 -168 85.5t-62 239.5zM264 313q0 -184 105 -184q35 0 86 38.5t105 107t105 153.5t92.5 188t60.5 201q-16 16 -41 34.5t-71 37.5t-90 19q-67 0 -125.5 -38.5t-99 -101t-70 -141t-43.5 -159t-14 -155.5zM396 1362l84 149l394 -214l-55 -99z" />
<glyph unicode="&#xe1;" horiz-adv-x="1063" d="M90 305q0 106 21.5 211t66.5 200.5t107 168.5t150 116t189 43q117 0 220 -88l24 88h128q-5 -32 -129 -811q-25 -159 -17 -233h-153q-9 28 -9 87.5t8 112.5q2 13 7.5 33.5t12 41.5t15 45t14.5 41t12 32.5t6 16.5q-30 -57 -65.5 -113t-82 -114.5t-93 -102.5t-100 -72 t-102.5 -28q-106 0 -168 85.5t-62 239.5zM264 313q0 -184 105 -184q35 0 86 38.5t105 107t105 153.5t92.5 188t60.5 201q-16 16 -41 34.5t-71 37.5t-90 19q-67 0 -125.5 -38.5t-99 -101t-70 -141t-43.5 -159t-14 -155.5zM449 1289l448 229l58 -150l-467 -170z" />
<glyph unicode="&#xe2;" horiz-adv-x="1054" d="M90 305q0 106 21.5 211t66.5 200.5t107 168.5t150 116t189 43q117 0 220 -88l24 88h128q-5 -32 -129 -811q-25 -159 -17 -233h-153q-9 28 -9 87.5t8 112.5q2 13 7.5 33.5t12 41.5t15 45t14.5 41t12 32.5t6 16.5q-30 -57 -65.5 -113t-82 -114.5t-93 -102.5t-100 -72 t-102.5 -28q-106 0 -168 85.5t-62 239.5zM264 313q0 -184 105 -184q35 0 86 38.5t105 107t105 153.5t92.5 188t60.5 201q-16 16 -41 34.5t-71 37.5t-90 19q-67 0 -125.5 -38.5t-99 -101t-70 -141t-43.5 -159t-14 -155.5zM389 1299q142 89 318 221q145 -142 245 -219 l-100 -110q-96 86 -169 168q-102 -84 -226 -168z" />
<glyph unicode="&#xe3;" horiz-adv-x="1054" d="M90 305q0 106 21.5 211t66.5 200.5t107 168.5t150 116t189 43q117 0 220 -88l24 88h128q-5 -32 -129 -811q-25 -159 -17 -233h-153q-9 28 -9 87.5t8 112.5q2 13 7.5 33.5t12 41.5t15 45t14.5 41t12 32.5t6 16.5q-30 -57 -65.5 -113t-82 -114.5t-93 -102.5t-100 -72 t-102.5 -28q-106 0 -168 85.5t-62 239.5zM264 313q0 -184 105 -184q35 0 86 38.5t105 107t105 153.5t92.5 188t60.5 201q-16 16 -41 34.5t-71 37.5t-90 19q-67 0 -125.5 -38.5t-99 -101t-70 -141t-43.5 -159t-14 -155.5zM385 1323q96 129 208 129q36 0 96 -32.5t85 -32.5 q42 0 107 65l74 -75q-96 -129 -208 -129q-36 0 -96 32.5t-85 32.5q-42 0 -107 -65z" />
<glyph unicode="&#xe4;" horiz-adv-x="1054" d="M90 305q0 106 21.5 211t66.5 200.5t107 168.5t150 116t189 43q117 0 220 -88l24 88h128q-5 -32 -129 -811q-25 -159 -17 -233h-153q-9 28 -9 87.5t8 112.5q2 13 7.5 33.5t12 41.5t15 45t14.5 41t12 32.5t6 16.5q-30 -57 -65.5 -113t-82 -114.5t-93 -102.5t-100 -72 t-102.5 -28q-106 0 -168 85.5t-62 239.5zM264 313q0 -184 105 -184q35 0 86 38.5t105 107t105 153.5t92.5 188t60.5 201q-16 16 -41 34.5t-71 37.5t-90 19q-67 0 -125.5 -38.5t-99 -101t-70 -141t-43.5 -159t-14 -155.5zM370 1333q0 55 39 91t94 36q41 0 65.5 -26.5 t24.5 -68.5q0 -56 -39.5 -92t-94.5 -36q-41 0 -65 26.5t-24 69.5zM756 1333q0 55 39 91t94 36q41 0 65.5 -26.5t24.5 -68.5q0 -56 -39.5 -92t-94.5 -36q-41 0 -65 26.5t-24 69.5z" />
<glyph unicode="&#xe5;" horiz-adv-x="1054" d="M90 305q0 106 21.5 211t66.5 200.5t107 168.5t150 116t189 43q117 0 220 -88l24 88h128q-5 -32 -129 -811q-25 -159 -17 -233h-153q-9 28 -9 87.5t8 112.5q2 13 7.5 33.5t12 41.5t15 45t14.5 41t12 32.5t6 16.5q-30 -57 -65.5 -113t-82 -114.5t-93 -102.5t-100 -72 t-102.5 -28q-106 0 -168 85.5t-62 239.5zM264 313q0 -184 105 -184q35 0 86 38.5t105 107t105 153.5t92.5 188t60.5 201q-16 16 -41 34.5t-71 37.5t-90 19q-67 0 -125.5 -38.5t-99 -101t-70 -141t-43.5 -159t-14 -155.5zM433 1321q0 95 73 165t172 70q73 0 122.5 -51 t49.5 -124q0 -95 -73.5 -165.5t-173.5 -70.5q-72 0 -121 51t-49 125zM543 1339q0 -35 24 -60.5t58 -25.5q46 0 80.5 33.5t34.5 76.5q0 36 -24.5 60.5t-59.5 24.5q-44 0 -78.5 -33t-34.5 -76z" />
<glyph unicode="&#xe6;" horiz-adv-x="1326" d="M30 215q0 125 91.5 206.5t265.5 99.5l178 19q26 105 70 194q-10 85 -53 126t-122 41q-128 0 -254 -52l-20 121q50 27 135 50.5t169 23.5q201 0 267 -135q132 135 301 135q118 0 183 -58.5t65 -155.5q0 -167 -146.5 -260.5t-438.5 -126.5q-10 -64 -10 -130 q0 -189 145 -189q118 0 307 87l30 -129q-177 -102 -386 -102q-156 0 -227 129q-84 -66 -155 -97.5t-153 -31.5q-106 0 -174 65t-68 170zM200 240q0 -57 33.5 -87t92.5 -30q106 0 218 92q-7 39 -7 90q0 63 7 119l-169 -20q-89 -11 -132 -55t-43 -109zM746 559q174 29 280 97 t106 161q0 41 -20 67t-63 26q-105 0 -183.5 -100t-119.5 -251z" />
<glyph unicode="&#xe7;" horiz-adv-x="819" d="M90 305q0 134 35.5 263.5t101 236.5t171 173t233.5 66q116 0 208 -46l-52 -136q-95 33 -175 33q-82 0 -150.5 -57.5t-110 -146t-64.5 -188t-23 -190.5q0 -189 135 -189q109 0 292 85l35 -127q-177 -102 -376 -102q-120 0 -190 85.5t-70 239.5zM217 -400l31 91 q30 -10 82 -10q46 0 65 20.5t19 49.5q0 50 -69 50h-65l24 94h84q69 0 109.5 -30.5t40.5 -87.5q0 -89 -64.5 -141t-172.5 -52q-50 0 -84 16z" />
<glyph unicode="&#xe8;" horiz-adv-x="879" d="M90 305q0 106 22.5 211.5t67.5 200t106.5 168t145.5 116.5t179 43q118 0 183 -58.5t65 -155.5q0 -170 -156 -270.5t-429 -121.5q-10 -61 -10 -125q0 -189 145 -189q118 0 307 87l30 -129q-177 -102 -386 -102q-124 0 -197 85.5t-73 239.5zM294 539q171 31 281 103 t110 175q0 41 -20 67t-63 26q-74 0 -137.5 -54.5t-104.5 -135t-66 -181.5zM394 1362l84 149l394 -214l-55 -99z" />
<glyph unicode="&#xe9;" horiz-adv-x="879" d="M90 305q0 106 22.5 211.5t67.5 200t106.5 168t145.5 116.5t179 43q118 0 183 -58.5t65 -155.5q0 -170 -156 -270.5t-429 -121.5q-10 -61 -10 -125q0 -189 145 -189q118 0 307 87l30 -129q-177 -102 -386 -102q-124 0 -197 85.5t-73 239.5zM294 539q171 31 281 103 t110 175q0 41 -20 67t-63 26q-74 0 -137.5 -54.5t-104.5 -135t-66 -181.5zM408 1289l448 229l58 -150l-467 -170z" />
<glyph unicode="&#xea;" horiz-adv-x="879" d="M90 305q0 106 22.5 211.5t67.5 200t106.5 168t145.5 116.5t179 43q118 0 183 -58.5t65 -155.5q0 -170 -156 -270.5t-429 -121.5q-10 -61 -10 -125q0 -189 145 -189q118 0 307 87l30 -129q-177 -102 -386 -102q-124 0 -197 85.5t-73 239.5zM294 539q171 31 281 103 t110 175q0 41 -20 67t-63 26q-74 0 -137.5 -54.5t-104.5 -135t-66 -181.5zM356 1299q142 89 318 221q145 -142 245 -219l-100 -110q-96 86 -169 168q-102 -84 -226 -168z" />
<glyph unicode="&#xeb;" horiz-adv-x="879" d="M90 305q0 106 22.5 211.5t67.5 200t106.5 168t145.5 116.5t179 43q118 0 183 -58.5t65 -155.5q0 -170 -156 -270.5t-429 -121.5q-10 -61 -10 -125q0 -189 145 -189q118 0 307 87l30 -129q-177 -102 -386 -102q-124 0 -197 85.5t-73 239.5zM294 539q171 31 281 103 t110 175q0 41 -20 67t-63 26q-74 0 -137.5 -54.5t-104.5 -135t-66 -181.5zM345 1333q0 55 39 91t94 36q41 0 65.5 -26.5t24.5 -68.5q0 -56 -39.5 -92t-94.5 -36q-41 0 -65 26.5t-24 69.5zM731 1333q0 55 39 91t94 36q41 0 65.5 -26.5t24.5 -68.5q0 -56 -39.5 -92t-94.5 -36 q-41 0 -65 26.5t-24 69.5z" />
<glyph unicode="&#xec;" horiz-adv-x="511" d="M111 1362l84 149l394 -214l-55 -99zM129 200l131 824h161l-126 -791q-25 -154 -17 -233h-148q-9 28 -9 88.5t8 111.5z" />
<glyph unicode="&#xed;" horiz-adv-x="511" d="M129 200l131 824h161l-126 -791q-25 -154 -17 -233h-148q-9 28 -9 88.5t8 111.5zM185 1289l448 229l58 -150l-467 -170z" />
<glyph unicode="&#xee;" horiz-adv-x="511" d="M100 1299q142 89 318 221q145 -142 245 -219l-100 -110q-96 86 -169 168q-102 -84 -226 -168zM129 200l131 824h161l-126 -791q-25 -154 -17 -233h-148q-9 28 -9 88.5t8 111.5z" />
<glyph unicode="&#xef;" horiz-adv-x="511" d="M100 1333q0 55 39 91t94 36q41 0 65.5 -26.5t24.5 -68.5q0 -56 -39.5 -92t-94.5 -36q-41 0 -65 26.5t-24 69.5zM129 200l131 824h161l-126 -791q-25 -154 -17 -233h-148q-9 28 -9 88.5t8 111.5zM456 1333q0 55 39 91t94 36q41 0 65.5 -26.5t24.5 -68.5q0 -56 -39.5 -92 t-94.5 -36q-41 0 -65 26.5t-24 69.5z" />
<glyph unicode="&#xf0;" horiz-adv-x="996" d="M90 344q0 128 36 252t100 224.5t162 162t212 61.5q39 0 78 -10t57 -19t27 -15q-11 180 -74 267l-115 -124l-94 83l105 116q-33 9 -69 9q-83 0 -164 -30l-24 112q31 15 91.5 31t123.5 16q80 0 144 -26l115 125l98 -83l-105 -114q152 -152 152 -516q0 -406 -153.5 -646 t-412.5 -240q-140 0 -215 89.5t-75 274.5zM262 369q0 -131 33.5 -193.5t116.5 -62.5q65 0 128.5 51.5t116 143.5t85 235t32.5 310q-22 20 -75 41.5t-116 21.5q-90 0 -166 -91t-115.5 -215.5t-39.5 -240.5z" />
<glyph unicode="&#xf1;" horiz-adv-x="1075" d="M100 0l126 791q25 154 17 233h153q9 -28 9 -88.5t-8 -111.5q-15 -95 -72 -253q63 130 136.5 233t163.5 171.5t173 68.5q123 0 167 -87.5t21 -234.5l-78 -489q-25 -154 -17 -233h-148q-9 28 -9 88.5t8 111.5l78 491q15 88 -1.5 136t-73.5 48q-50 0 -120 -59.5t-136.5 -153 t-122.5 -223.5t-76 -257l-29 -182h-161zM407 1323q96 129 208 129q36 0 96 -32.5t85 -32.5q42 0 107 65l74 -75q-96 -129 -208 -129q-36 0 -96 32.5t-85 32.5q-42 0 -107 -65z" />
<glyph unicode="&#xf2;" horiz-adv-x="991" d="M90 343q0 201 68 361t189 250t274 90q148 0 234 -97.5t86 -265.5q0 -201 -68 -361t-189 -250t-274 -90q-148 0 -234 97.5t-86 265.5zM264 361q0 -247 174 -247q87 0 163 74.5t121 201.5t45 273q0 247 -174 247q-87 0 -163 -74.5t-121 -201.5t-45 -273zM385 1362l84 149 l394 -214l-55 -99z" />
<glyph unicode="&#xf3;" horiz-adv-x="991" d="M90 343q0 201 68 361t189 250t274 90q148 0 234 -97.5t86 -265.5q0 -201 -68 -361t-189 -250t-274 -90q-148 0 -234 97.5t-86 265.5zM264 361q0 -247 174 -247q87 0 163 74.5t121 201.5t45 273q0 247 -174 247q-87 0 -163 -74.5t-121 -201.5t-45 -273zM423 1289l448 229 l58 -150l-467 -170z" />
<glyph unicode="&#xf4;" horiz-adv-x="991" d="M90 343q0 201 68 361t189 250t274 90q148 0 234 -97.5t86 -265.5q0 -201 -68 -361t-189 -250t-274 -90q-148 0 -234 97.5t-86 265.5zM264 361q0 -247 174 -247q87 0 163 74.5t121 201.5t45 273q0 247 -174 247q-87 0 -163 -74.5t-121 -201.5t-45 -273zM373 1299 q142 89 318 221q145 -142 245 -219l-100 -110q-96 86 -169 168q-102 -84 -226 -168z" />
<glyph unicode="&#xf5;" horiz-adv-x="991" d="M90 343q0 201 68 361t189 250t274 90q148 0 234 -97.5t86 -265.5q0 -201 -68 -361t-189 -250t-274 -90q-148 0 -234 97.5t-86 265.5zM264 361q0 -247 174 -247q87 0 163 74.5t121 201.5t45 273q0 247 -174 247q-87 0 -163 -74.5t-121 -201.5t-45 -273zM368 1323 q96 129 208 129q36 0 96 -32.5t85 -32.5q42 0 107 65l74 -75q-96 -129 -208 -129q-36 0 -96 32.5t-85 32.5q-42 0 -107 -65z" />
<glyph unicode="&#xf6;" horiz-adv-x="991" d="M90 343q0 201 68 361t189 250t274 90q148 0 234 -97.5t86 -265.5q0 -201 -68 -361t-189 -250t-274 -90q-148 0 -234 97.5t-86 265.5zM264 361q0 -247 174 -247q87 0 163 74.5t121 201.5t45 273q0 247 -174 247q-87 0 -163 -74.5t-121 -201.5t-45 -273zM359 1333 q0 55 39 91t94 36q41 0 65.5 -26.5t24.5 -68.5q0 -56 -39.5 -92t-94.5 -36q-41 0 -65 26.5t-24 69.5zM745 1333q0 55 39 91t94 36q41 0 65.5 -26.5t24.5 -68.5q0 -56 -39.5 -92t-94.5 -36q-41 0 -65 26.5t-24 69.5z" />
<glyph unicode="&#xf7;" horiz-adv-x="1144" d="M195 598l21 133h763l-21 -133h-763zM422 310q0 55 39 91t94 36q41 0 65.5 -26.5t24.5 -68.5q0 -56 -39.5 -92t-94.5 -36q-41 0 -65 26.5t-24 69.5zM529 987q0 55 39 91t94 36q41 0 65.5 -26.5t24.5 -68.5q0 -56 -39.5 -92t-94.5 -36q-41 0 -65 26.5t-24 69.5z" />
<glyph unicode="&#xf8;" horiz-adv-x="991" d="M-36 -77l172 212q-46 87 -46 208q0 201 68 361t189 250t274 90q117 0 198 -64l153 188l94 -66l-172 -213q47 -88 47 -208q0 -201 -68 -361t-189 -250t-274 -90q-118 0 -199 64l-152 -187zM264 361q0 -34 3 -64l452 558q-43 55 -126 55q-87 0 -163 -74.5t-121 -201.5 t-45 -273zM312 169q43 -55 126 -55q87 0 163 74.5t121 201.5t45 273q0 38 -4 65z" />
<glyph unicode="&#xf9;" horiz-adv-x="1045" d="M129 302l78 489q25 154 17 233h148q9 -28 9 -88.5t-8 -111.5l-78 -491q-15 -88 1.5 -136t73.5 -48q48 0 114.5 59.5t130.5 153t117 223.5t73 257l29 182h161l-126 -791q-25 -154 -17 -233h-153q-9 28 -9 88.5t8 111.5q10 58 34.5 138.5t36.5 113.5q-60 -129 -131 -232.5 t-156.5 -171.5t-164.5 -68q-123 0 -167 87.5t-21 234.5zM330 1362l84 149l394 -214l-55 -99z" />
<glyph unicode="&#xfa;" horiz-adv-x="1045" d="M129 302l78 489q25 154 17 233h148q9 -28 9 -88.5t-8 -111.5l-78 -491q-15 -88 1.5 -136t73.5 -48q48 0 114.5 59.5t130.5 153t117 223.5t73 257l29 182h161l-126 -791q-25 -154 -17 -233h-153q-9 28 -9 88.5t8 111.5q10 58 34.5 138.5t36.5 113.5q-60 -129 -131 -232.5 t-156.5 -171.5t-164.5 -68q-123 0 -167 87.5t-21 234.5zM423 1289l448 229l58 -150l-467 -170z" />
<glyph unicode="&#xfb;" horiz-adv-x="1045" d="M129 302l78 489q25 154 17 233h148q9 -28 9 -88.5t-8 -111.5l-78 -491q-15 -88 1.5 -136t73.5 -48q48 0 114.5 59.5t130.5 153t117 223.5t73 257l29 182h161l-126 -791q-25 -154 -17 -233h-153q-9 28 -9 88.5t8 111.5q10 58 34.5 138.5t36.5 113.5q-60 -129 -131 -232.5 t-156.5 -171.5t-164.5 -68q-123 0 -167 87.5t-21 234.5zM357 1299q142 89 318 221q145 -142 245 -219l-100 -110q-96 86 -169 168q-102 -84 -226 -168z" />
<glyph unicode="&#xfc;" horiz-adv-x="1045" d="M129 302l78 489q25 154 17 233h148q9 -28 9 -88.5t-8 -111.5l-78 -491q-15 -88 1.5 -136t73.5 -48q48 0 114.5 59.5t130.5 153t117 223.5t73 257l29 182h161l-126 -791q-25 -154 -17 -233h-153q-9 28 -9 88.5t8 111.5q10 58 34.5 138.5t36.5 113.5q-60 -129 -131 -232.5 t-156.5 -171.5t-164.5 -68q-123 0 -167 87.5t-21 234.5zM334 1333q0 55 39 91t94 36q41 0 65.5 -26.5t24.5 -68.5q0 -56 -39.5 -92t-94.5 -36q-41 0 -65 26.5t-24 69.5zM720 1333q0 55 39 91t94 36q41 0 65.5 -26.5t24.5 -68.5q0 -56 -39.5 -92t-94.5 -36q-41 0 -65 26.5 t-24 69.5z" />
<glyph unicode="&#xfd;" horiz-adv-x="938" d="M-145 -376l40 123q50 -27 110 -27q44 0 79.5 14t66 49.5t49.5 92t27 146t1 207.5q-11 190 -28.5 377t-32.5 293.5t-22 124.5h161q9 -27 22 -110.5t30.5 -263t29.5 -394.5q7 -125 -5 -230l56 91q126 168 205.5 376t79.5 387q0 86 -19 144l166 20q27 -71 27 -167 q0 -253 -179.5 -570t-457.5 -607q-98 -116 -248 -116q-95 0 -158 40zM397 1289l448 229l58 -150l-467 -170z" />
<glyph unicode="&#xfe;" horiz-adv-x="1058" d="M30 -396q93 564 197 1225l67 414q20 128 11 207l152 30q11 -30 11.5 -92t-8.5 -112l-73 -452q-4 -25 -13 -63t-16 -63l-8 -25q50 95 113.5 175.5t146 138t158.5 57.5q106 0 168 -85.5t62 -239.5q0 -106 -21.5 -211t-66.5 -200.5t-107 -168.5t-150 -116t-189 -43 q-108 0 -200 71l-73 -447h-161zM280 207q27 -31 78 -61t114 -30q67 0 125.5 38.5t99 101t70 141t43.5 159t14 155.5q0 184 -105 184q-44 0 -110.5 -61t-131 -155.5t-120 -222.5t-77.5 -249z" />
<glyph unicode="&#xff;" horiz-adv-x="945" d="M-145 -376l40 123q50 -27 110 -27q44 0 79.5 14t66 49.5t49.5 92t27 146t1 207.5q-11 190 -28.5 377t-32.5 293.5t-22 124.5h161q9 -27 22 -110.5t30.5 -263t29.5 -394.5q7 -125 -5 -230l56 91q126 168 205.5 376t79.5 387q0 86 -19 144l166 20q27 -71 27 -167 q0 -253 -179.5 -570t-457.5 -607q-98 -116 -248 -116q-95 0 -158 40zM261 1333q0 55 39 91t94 36q41 0 65.5 -26.5t24.5 -68.5q0 -56 -39.5 -92t-94.5 -36q-41 0 -65 26.5t-24 69.5zM647 1333q0 55 39 91t94 36q41 0 65.5 -26.5t24.5 -68.5q0 -56 -39.5 -92t-94.5 -36 q-41 0 -65 26.5t-24 69.5z" />
<glyph unicode="&#x152;" horiz-adv-x="1767" d="M120 532q0 236 90 423t248 291t355 104q150 0 267 -97l12 77h715l-22 -143h-541l-71 -446h521l-22 -143h-521l-74 -455h559l-21 -143h-733l9 60q-146 -80 -306 -80q-206 0 -335.5 153.5t-129.5 398.5zM301 558q0 -200 86 -320t232 -120q165 0 298 107l135 853 q-46 60 -117 97t-156 37q-133 0 -243 -86.5t-172.5 -236.5t-62.5 -331z" />
<glyph unicode="&#x153;" horiz-adv-x="1431" d="M90 343q0 201 68 361t189 250t274 90q160 0 247 -129q131 129 295 129q118 0 183 -58.5t65 -155.5q0 -170 -156 -270.5t-429 -121.5q-10 -61 -10 -125q0 -189 145 -189q118 0 307 87l30 -129q-177 -102 -386 -102q-146 0 -217 111q-127 -111 -285 -111q-148 0 -234 97.5 t-86 265.5zM264 361q0 -247 174 -247q116 0 209 117q-5 38 -5 74q0 126 32.5 251t92.5 228q-33 126 -174 126q-87 0 -163 -74.5t-121 -201.5t-45 -273zM846 539q171 31 281 103t110 175q0 41 -20 67t-63 26q-74 0 -137.5 -54.5t-104.5 -135t-66 -181.5z" />
<glyph unicode="&#x178;" horiz-adv-x="969" d="M125 1330h163l219 -657l428 657h179l-537 -818l-82 -512h-175l83 512zM339 1633q0 55 39 91t94 36q41 0 65.5 -26.5t24.5 -68.5q0 -56 -39.5 -92t-94.5 -36q-41 0 -65 26.5t-24 69.5zM725 1633q0 55 39 91t94 36q41 0 65.5 -26.5t24.5 -68.5q0 -56 -39.5 -92t-94.5 -36 q-41 0 -65 26.5t-24 69.5z" />
<glyph unicode="&#x2c6;" horiz-adv-x="753" d="M220 1299q142 89 318 221q145 -142 245 -219l-100 -110q-96 86 -169 168q-102 -84 -226 -168z" />
<glyph unicode="&#x2dc;" horiz-adv-x="670" d="M180 1323q96 129 208 129q36 0 96 -32.5t85 -32.5q42 0 107 65l74 -75q-96 -129 -208 -129q-36 0 -96 32.5t-85 32.5q-42 0 -107 -65z" />
<glyph unicode="&#x2000;" horiz-adv-x="928" />
<glyph unicode="&#x2001;" horiz-adv-x="1856" />
<glyph unicode="&#x2002;" horiz-adv-x="928" />
<glyph unicode="&#x2003;" horiz-adv-x="1856" />
<glyph unicode="&#x2004;" horiz-adv-x="618" />
<glyph unicode="&#x2005;" horiz-adv-x="464" />
<glyph unicode="&#x2006;" horiz-adv-x="309" />
<glyph unicode="&#x2007;" horiz-adv-x="309" />
<glyph unicode="&#x2008;" horiz-adv-x="232" />
<glyph unicode="&#x2009;" horiz-adv-x="371" />
<glyph unicode="&#x200a;" horiz-adv-x="103" />
<glyph unicode="&#x2010;" horiz-adv-x="993" d="M210 466l21 133h542l-21 -133h-542z" />
<glyph unicode="&#x2011;" horiz-adv-x="993" d="M210 466l21 133h542l-21 -133h-542z" />
<glyph unicode="&#x2012;" horiz-adv-x="993" d="M210 466l21 133h542l-21 -133h-542z" />
<glyph unicode="&#x2013;" horiz-adv-x="1494" d="M210 466l21 133h1043l-21 -133h-1043z" />
<glyph unicode="&#x2014;" horiz-adv-x="2315" d="M210 466l21 133h1864l-21 -133h-1864z" />
<glyph unicode="&#x2018;" horiz-adv-x="423" d="M180 1120q0 197 234 344l79 -73q-124 -89 -144 -207q-18 -110 45 -197l-164 -42q-17 19 -33.5 67t-16.5 108z" />
<glyph unicode="&#x2019;" horiz-adv-x="423" d="M150 1041q124 89 144 207q18 110 -45 197l164 42q17 -19 33.5 -67t16.5 -108q0 -197 -234 -344z" />
<glyph unicode="&#x201a;" horiz-adv-x="423" d="M-40 -235q124 89 144 207q18 110 -45 197l164 42q17 -19 33.5 -67t16.5 -108q0 -197 -234 -344z" />
<glyph unicode="&#x201c;" horiz-adv-x="735" d="M180 1130q0 197 234 344l72 -67q-60 -43 -100 -93.5t-52 -119.5q-19 -109 47 -200l-151 -39q-17 19 -33.5 67t-16.5 108zM492 1130q0 194 229 339l72 -67q-129 -94 -147 -208q-19 -109 47 -200l-151 -39q-17 19 -33.5 67t-16.5 108z" />
<glyph unicode="&#x201d;" horiz-adv-x="723" d="M150 1017q129 94 147 208q19 109 -47 200l151 39q17 -19 33.5 -67t16.5 -108q0 -194 -229 -339zM457 1012q60 43 100 93.5t52 119.5q19 109 -47 200l151 39q17 -19 33.5 -67t16.5 -108q0 -197 -234 -344z" />
<glyph unicode="&#x201e;" horiz-adv-x="723" d="M-40 -236q129 94 147 208q19 109 -47 200l151 39q17 -19 33.5 -67t16.5 -108q0 -194 -229 -339zM267 -241q60 43 100 93.5t52 119.5q19 109 -47 200l151 39q17 -19 33.5 -67t16.5 -108q0 -197 -234 -344z" />
<glyph unicode="&#x2022;" horiz-adv-x="579" d="M60 659q0 101 71.5 167t172.5 66q75 0 120 -49t45 -125q0 -102 -72.5 -168.5t-173.5 -66.5q-75 0 -119 48.5t-44 127.5z" />
<glyph unicode="&#x2026;" horiz-adv-x="1335" d="M70 76q0 55 39 91t94 36q41 0 65.5 -26.5t24.5 -68.5q0 -56 -39.5 -92t-94.5 -36q-41 0 -65 26.5t-24 69.5zM506 76q0 55 39 91t94 36q41 0 65.5 -26.5t24.5 -68.5q0 -56 -39.5 -92t-94.5 -36q-41 0 -65 26.5t-24 69.5zM942 76q0 55 39 91t94 36q41 0 65.5 -26.5 t24.5 -68.5q0 -56 -39.5 -92t-94.5 -36q-41 0 -65 26.5t-24 69.5z" />
<glyph unicode="&#x202f;" horiz-adv-x="371" />
<glyph unicode="&#x2039;" horiz-adv-x="712" d="M140 516q222 211 430 472l102 -93q-110 -148 -353 -379q169 -223 233 -379l-132 -92q-133 272 -280 471z" />
<glyph unicode="&#x203a;" horiz-adv-x="732" d="M80 128q110 148 353 379q-169 223 -233 379l132 92q133 -272 280 -471q-222 -211 -430 -472z" />
<glyph unicode="&#x205f;" horiz-adv-x="464" />
<glyph unicode="&#x20ac;" horiz-adv-x="1255" d="M131 470l20 128h789l-20 -128h-458q20 -165 115.5 -256.5t258.5 -91.5q110 0 253 55l24 -123q-128 -74 -320 -74q-223 0 -357.5 133t-152.5 357h-152zM173 734l20 128h141q78 225 253 356.5t406 131.5q155 0 282 -80l-67 -118q-131 56 -244 56q-152 0 -271.5 -93.5 t-181.5 -252.5h471l-20 -128h-789z" />
<glyph unicode="&#x2122;" horiz-adv-x="758" d="M180 1283l11 67h242l-11 -67h-77l-41 -259h-86l41 259h-79zM398 1024l52 326h121l19 -180l77 180h121l-52 -326h-86l25 161l-73 -161h-70l-23 161l-25 -161h-86z" />
<glyph unicode="&#x25fc;" horiz-adv-x="1025" d="M0 0v1025h1025v-1025h-1025z" />
</font>
</defs>
</svg>
